solid OpenSCAD_Model
  facet normal 0.92388 0.382683 0
    outer loop
      vertex 35 0 3
      vertex 24.7487 24.7487 0
      vertex 24.7487 24.7487 3
    endloop
  endfacet
  facet normal 0.92388 0.382683 0
    outer loop
      vertex 24.7487 24.7487 0
      vertex 35 0 3
      vertex 35 0 0
    endloop
  endfacet
  facet normal -0.92388 0.382683 0
    outer loop
      vertex -35 0 0
      vertex -24.7487 24.7487 3
      vertex -24.7487 24.7487 0
    endloop
  endfacet
  facet normal -0.92388 0.382683 0
    outer loop
      vertex -24.7487 24.7487 3
      vertex -35 0 0
      vertex -35 0 3
    endloop
  endfacet
  facet normal 0.382683 0.92388 -0
    outer loop
      vertex 24.7487 24.7487 0
      vertex 0 35 3
      vertex 24.7487 24.7487 3
    endloop
  endfacet
  facet normal 0.382683 0.92388 0
    outer loop
      vertex 0 35 3
      vertex 24.7487 24.7487 0
      vertex 0 35 0
    endloop
  endfacet
  facet normal 0 0 -1
    outer loop
      vertex -30 1.25 0
      vertex -21.5 11.5 0
      vertex -29.1161 0.883883 0
    endloop
  endfacet
  facet normal -0 0 -1
    outer loop
      vertex -21.5 11.5 0
      vertex -30 1.25 0
      vertex -24.7487 24.7487 0
    endloop
  endfacet
  facet normal 0 0 -1
    outer loop
      vertex -30.8839 0.883883 0
      vertex -24.7487 24.7487 0
      vertex -30 1.25 0
    endloop
  endfacet
  facet normal 0 0 -1
    outer loop
      vertex -35 0 0
      vertex -30.8839 0.883883 0
      vertex -31.25 0 0
    endloop
  endfacet
  facet normal -0 0 -1
    outer loop
      vertex -30.8839 0.883883 0
      vertex -35 0 0
      vertex -24.7487 24.7487 0
    endloop
  endfacet
  facet normal 0 0 -1
    outer loop
      vertex 24.7487 24.7487 0
      vertex 0.883883 29.1161 0
      vertex 1.25 30 0
    endloop
  endfacet
  facet normal 0 0 -1
    outer loop
      vertex 21.5 11.5 0
      vertex 0 28.75 0
      vertex 0.883883 29.1161 0
    endloop
  endfacet
  facet normal 0 0 -1
    outer loop
      vertex -21.5 11.5 0
      vertex 0 28.75 0
      vertex 21.5 11.5 0
    endloop
  endfacet
  facet normal 0 0 -1
    outer loop
      vertex -24.7487 24.7487 0
      vertex -0.883883 29.1161 0
      vertex -21.5 11.5 0
    endloop
  endfacet
  facet normal -0 0 -1
    outer loop
      vertex 0 28.75 0
      vertex -21.5 11.5 0
      vertex -0.883883 29.1161 0
    endloop
  endfacet
  facet normal -0 0 -1
    outer loop
      vertex 35 0 0
      vertex 30.8839 -0.883883 0
      vertex 31.25 0 0
    endloop
  endfacet
  facet normal 0 0 -1
    outer loop
      vertex 29.5 -11.5 0
      vertex 30.8839 -0.883883 0
      vertex 35 0 0
    endloop
  endfacet
  facet normal 0 0 -1
    outer loop
      vertex 30.8839 -0.883883 0
      vertex 29.5 -11.5 0
      vertex 30 -1.25 0
    endloop
  endfacet
  facet normal 0 0 -1
    outer loop
      vertex 24.7487 -24.7487 0
      vertex 29.5 -11.5 0
      vertex 35 0 0
    endloop
  endfacet
  facet normal 0 0 -1
    outer loop
      vertex 24.7487 -24.7487 0
      vertex 21.5 -11.5 0
      vertex 29.5 -11.5 0
    endloop
  endfacet
  facet normal 0 0 -1
    outer loop
      vertex 0.883883 -29.1161 0
      vertex 24.7487 -24.7487 0
      vertex 1.25 -30 0
    endloop
  endfacet
  facet normal 0 0 -1
    outer loop
      vertex 24.7487 -24.7487 0
      vertex 0.883883 -30.8839 0
      vertex 1.25 -30 0
    endloop
  endfacet
  facet normal 0 0 -1
    outer loop
      vertex 0 -35 0
      vertex 0.883883 -30.8839 0
      vertex 24.7487 -24.7487 0
    endloop
  endfacet
  facet normal 0 0 -1
    outer loop
      vertex 0 -35 0
      vertex 0 -31.25 0
      vertex 0.883883 -30.8839 0
    endloop
  endfacet
  facet normal 0 0 -1
    outer loop
      vertex 0 -35 0
      vertex -0.883883 -30.8839 0
      vertex 0 -31.25 0
    endloop
  endfacet
  facet normal 0 0 -1
    outer loop
      vertex 0 -35 0
      vertex -1.25 -30 0
      vertex -0.883883 -30.8839 0
    endloop
  endfacet
  facet normal 0 0 -1
    outer loop
      vertex -24.7487 -24.7487 0
      vertex -1.25 -30 0
      vertex 0 -35 0
    endloop
  endfacet
  facet normal 0 0 -1
    outer loop
      vertex -30 -1.25 0
      vertex -21.5 -11.5 0
      vertex -24.7487 -24.7487 0
    endloop
  endfacet
  facet normal 0 0 -1
    outer loop
      vertex -1.25 -30 0
      vertex -24.7487 -24.7487 0
      vertex -21.5 -11.5 0
    endloop
  endfacet
  facet normal 0 0 -1
    outer loop
      vertex 30.8839 0.883883 0
      vertex 35 0 0
      vertex 31.25 0 0
    endloop
  endfacet
  facet normal 0 0 -1
    outer loop
      vertex 29.5 11.5 0
      vertex 30.8839 0.883883 0
      vertex 30 1.25 0
    endloop
  endfacet
  facet normal 0 0 -1
    outer loop
      vertex 29.5 11.5 0
      vertex 30 1.25 0
      vertex 29.5 1.04289 0
    endloop
  endfacet
  facet normal 0 0 -1
    outer loop
      vertex 30.8839 0.883883 0
      vertex 29.5 11.5 0
      vertex 35 0 0
    endloop
  endfacet
  facet normal 0 0 -1
    outer loop
      vertex 29.5 11.5 0
      vertex 24.7487 24.7487 0
      vertex 35 0 0
    endloop
  endfacet
  facet normal 0 0 -1
    outer loop
      vertex 21.5 11.5 0
      vertex 24.7487 24.7487 0
      vertex 29.5 11.5 0
    endloop
  endfacet
  facet normal 0 0 -1
    outer loop
      vertex 0.883883 29.1161 0
      vertex 24.7487 24.7487 0
      vertex 21.5 11.5 0
    endloop
  endfacet
  facet normal 0 0 -1
    outer loop
      vertex 0.883883 30.8839 0
      vertex 24.7487 24.7487 0
      vertex 1.25 30 0
    endloop
  endfacet
  facet normal 0 0 -1
    outer loop
      vertex 0 35 0
      vertex 0.883883 30.8839 0
      vertex 0 31.25 0
    endloop
  endfacet
  facet normal 0 0 -1
    outer loop
      vertex 0.883883 30.8839 0
      vertex 0 35 0
      vertex 24.7487 24.7487 0
    endloop
  endfacet
  facet normal 0 0 -1
    outer loop
      vertex -0.883883 30.8839 0
      vertex 0 35 0
      vertex 0 31.25 0
    endloop
  endfacet
  facet normal 0 0 -1
    outer loop
      vertex -1.25 30 0
      vertex 0 35 0
      vertex -0.883883 30.8839 0
    endloop
  endfacet
  facet normal -0 0 -1
    outer loop
      vertex -0.883883 29.1161 0
      vertex -24.7487 24.7487 0
      vertex -1.25 30 0
    endloop
  endfacet
  facet normal -0 0 -1
    outer loop
      vertex -1.25 30 0
      vertex -24.7487 24.7487 0
      vertex 0 35 0
    endloop
  endfacet
  facet normal 0 0 -1
    outer loop
      vertex -21.5 -11.5 0
      vertex -28.75 0 0
      vertex -21.5 11.5 0
    endloop
  endfacet
  facet normal 0 0 -1
    outer loop
      vertex -29.1161 0.883883 0
      vertex -21.5 11.5 0
      vertex -28.75 0 0
    endloop
  endfacet
  facet normal 0 0 -1
    outer loop
      vertex -21.5 -11.5 0
      vertex -29.1161 -0.883883 0
      vertex -28.75 0 0
    endloop
  endfacet
  facet normal 0 0 -1
    outer loop
      vertex -21.5 -11.5 0
      vertex -30 -1.25 0
      vertex -29.1161 -0.883883 0
    endloop
  endfacet
  facet normal 0 0 -1
    outer loop
      vertex -24.7487 -24.7487 0
      vertex -30.8839 -0.883883 0
      vertex -30 -1.25 0
    endloop
  endfacet
  facet normal 0 0 -1
    outer loop
      vertex -35 0 0
      vertex -30.8839 -0.883883 0
      vertex -24.7487 -24.7487 0
    endloop
  endfacet
  facet normal 0 0 -1
    outer loop
      vertex -30.8839 -0.883883 0
      vertex -35 0 0
      vertex -31.25 0 0
    endloop
  endfacet
  facet normal -0 0 -1
    outer loop
      vertex 30 -1.25 0
      vertex 29.5 -11.5 0
      vertex 29.5 -1.04289 0
    endloop
  endfacet
  facet normal -0 0 -1
    outer loop
      vertex 24.7487 -24.7487 0
      vertex 0.883883 -29.1161 0
      vertex 21.5 -11.5 0
    endloop
  endfacet
  facet normal 0 0 -1
    outer loop
      vertex 0 -28.75 0
      vertex 21.5 -11.5 0
      vertex 0.883883 -29.1161 0
    endloop
  endfacet
  facet normal 0 0 -1
    outer loop
      vertex -21.5 -11.5 0
      vertex 0 -28.75 0
      vertex -0.883883 -29.1161 0
    endloop
  endfacet
  facet normal 0 0 -1
    outer loop
      vertex 0 -28.75 0
      vertex -21.5 -11.5 0
      vertex 21.5 -11.5 0
    endloop
  endfacet
  facet normal 0 0 -1
    outer loop
      vertex -21.5 -11.5 0
      vertex -0.883883 -29.1161 0
      vertex -1.25 -30 0
    endloop
  endfacet
  facet normal 0 0 1
    outer loop
      vertex -0.883883 -29.1161 3
      vertex -29.1161 -0.883883 3
      vertex -24.7487 -24.7487 3
    endloop
  endfacet
  facet normal -0 0 1
    outer loop
      vertex -30 -1.25 3
      vertex -24.7487 -24.7487 3
      vertex -29.1161 -0.883883 3
    endloop
  endfacet
  facet normal 0 0 1
    outer loop
      vertex -30.8839 -0.883883 3
      vertex -24.7487 -24.7487 3
      vertex -30 -1.25 3
    endloop
  endfacet
  facet normal -0 0 1
    outer loop
      vertex -35 0 3
      vertex -30.8839 -0.883883 3
      vertex -31.25 0 3
    endloop
  endfacet
  facet normal 0 0 1
    outer loop
      vertex -30.8839 -0.883883 3
      vertex -35 0 3
      vertex -24.7487 -24.7487 3
    endloop
  endfacet
  facet normal -0 0 1
    outer loop
      vertex 0 28.75 3
      vertex 28.75 0 3
      vertex 0.883883 29.1161 3
    endloop
  endfacet
  facet normal 0 0 1
    outer loop
      vertex 28.75 0 3
      vertex 0.883883 -29.1161 3
      vertex 1.25 -30 3
    endloop
  endfacet
  facet normal 0 0 1
    outer loop
      vertex 0 -28.75 3
      vertex 28.75 0 3
      vertex 0 28.75 3
    endloop
  endfacet
  facet normal 0 0 1
    outer loop
      vertex 28.75 0 3
      vertex 0 -28.75 3
      vertex 0.883883 -29.1161 3
    endloop
  endfacet
  facet normal 0 0 1
    outer loop
      vertex -28.75 0 3
      vertex 0 28.75 3
      vertex -0.883883 29.1161 3
    endloop
  endfacet
  facet normal 0 0 1
    outer loop
      vertex 0 28.75 3
      vertex -28.75 0 3
      vertex 0 -28.75 3
    endloop
  endfacet
  facet normal 0 0 1
    outer loop
      vertex -24.7487 24.7487 3
      vertex -0.883883 29.1161 3
      vertex -1.25 30 3
    endloop
  endfacet
  facet normal 0 0 1
    outer loop
      vertex 0 -28.75 3
      vertex -28.75 0 3
      vertex -0.883883 -29.1161 3
    endloop
  endfacet
  facet normal 0 0 1
    outer loop
      vertex 29.1161 -0.883883 3
      vertex 1.25 -30 3
      vertex 24.7487 -24.7487 3
    endloop
  endfacet
  facet normal 0 0 1
    outer loop
      vertex 0.883883 -30.8839 3
      vertex 24.7487 -24.7487 3
      vertex 1.25 -30 3
    endloop
  endfacet
  facet normal 0 0 1
    outer loop
      vertex 0 -35 3
      vertex 0.883883 -30.8839 3
      vertex 0 -31.25 3
    endloop
  endfacet
  facet normal -0 0 1
    outer loop
      vertex 0.883883 -30.8839 3
      vertex 0 -35 3
      vertex 24.7487 -24.7487 3
    endloop
  endfacet
  facet normal 0 0 1
    outer loop
      vertex -0.883883 -30.8839 3
      vertex 0 -35 3
      vertex 0 -31.25 3
    endloop
  endfacet
  facet normal 0 0 1
    outer loop
      vertex -1.25 -30 3
      vertex 0 -35 3
      vertex -0.883883 -30.8839 3
    endloop
  endfacet
  facet normal -0 0 1
    outer loop
      vertex -29.1161 -0.883883 3
      vertex -0.883883 -29.1161 3
      vertex -28.75 0 3
    endloop
  endfacet
  facet normal 0 0 1
    outer loop
      vertex -0.883883 -29.1161 3
      vertex -24.7487 -24.7487 3
      vertex -1.25 -30 3
    endloop
  endfacet
  facet normal 0 0 1
    outer loop
      vertex -1.25 -30 3
      vertex -24.7487 -24.7487 3
      vertex 0 -35 3
    endloop
  endfacet
  facet normal 0 0 1
    outer loop
      vertex -0.883883 29.1161 3
      vertex -29.1161 0.883883 3
      vertex -28.75 0 3
    endloop
  endfacet
  facet normal 0 0 1
    outer loop
      vertex -24.7487 24.7487 3
      vertex -30 1.25 3
      vertex -29.1161 0.883883 3
    endloop
  endfacet
  facet normal 0 0 1
    outer loop
      vertex -24.7487 24.7487 3
      vertex -30.8839 0.883883 3
      vertex -30 1.25 3
    endloop
  endfacet
  facet normal 0 0 1
    outer loop
      vertex -35 0 3
      vertex -30.8839 0.883883 3
      vertex -24.7487 24.7487 3
    endloop
  endfacet
  facet normal 0 0 1
    outer loop
      vertex -30.8839 0.883883 3
      vertex -35 0 3
      vertex -31.25 0 3
    endloop
  endfacet
  facet normal 0 0 1
    outer loop
      vertex 35 0 3
      vertex 30.8839 0.883883 3
      vertex 31.25 0 3
    endloop
  endfacet
  facet normal 0 0 1
    outer loop
      vertex 35 0 3
      vertex 30 1.25 3
      vertex 30.8839 0.883883 3
    endloop
  endfacet
  facet normal -0 0 1
    outer loop
      vertex 0.883883 29.1161 3
      vertex 24.7487 24.7487 3
      vertex 1.25 30 3
    endloop
  endfacet
  facet normal 0 0 1
    outer loop
      vertex 30 1.25 3
      vertex 24.7487 24.7487 3
      vertex 29.1161 0.883883 3
    endloop
  endfacet
  facet normal 0 0 1
    outer loop
      vertex 24.7487 24.7487 3
      vertex 30 1.25 3
      vertex 35 0 3
    endloop
  endfacet
  facet normal 0 0 1
    outer loop
      vertex 30.8839 -0.883883 3
      vertex 35 0 3
      vertex 31.25 0 3
    endloop
  endfacet
  facet normal 0 0 1
    outer loop
      vertex 30 -1.25 3
      vertex 35 0 3
      vertex 30.8839 -0.883883 3
    endloop
  endfacet
  facet normal -0 0 1
    outer loop
      vertex 30 -1.25 3
      vertex 24.7487 -24.7487 3
      vertex 35 0 3
    endloop
  endfacet
  facet normal 0 0 1
    outer loop
      vertex 29.1161 -0.883883 3
      vertex 24.7487 -24.7487 3
      vertex 30 -1.25 3
    endloop
  endfacet
  facet normal 0 0 1
    outer loop
      vertex 1.25 -30 3
      vertex 29.1161 -0.883883 3
      vertex 28.75 0 3
    endloop
  endfacet
  facet normal 0 0 1
    outer loop
      vertex 24.7487 24.7487 3
      vertex 0.883883 29.1161 3
      vertex 29.1161 0.883883 3
    endloop
  endfacet
  facet normal 0 0 1
    outer loop
      vertex 29.1161 0.883883 3
      vertex 0.883883 29.1161 3
      vertex 28.75 0 3
    endloop
  endfacet
  facet normal 0 0 1
    outer loop
      vertex 24.7487 24.7487 3
      vertex 0.883883 30.8839 3
      vertex 1.25 30 3
    endloop
  endfacet
  facet normal 0 0 1
    outer loop
      vertex 0 35 3
      vertex 0.883883 30.8839 3
      vertex 24.7487 24.7487 3
    endloop
  endfacet
  facet normal 0 0 1
    outer loop
      vertex 0 35 3
      vertex 0 31.25 3
      vertex 0.883883 30.8839 3
    endloop
  endfacet
  facet normal 0 0 1
    outer loop
      vertex 0 35 3
      vertex -0.883883 30.8839 3
      vertex 0 31.25 3
    endloop
  endfacet
  facet normal 0 0 1
    outer loop
      vertex 0 35 3
      vertex -1.25 30 3
      vertex -0.883883 30.8839 3
    endloop
  endfacet
  facet normal 0 0 1
    outer loop
      vertex -29.1161 0.883883 3
      vertex -0.883883 29.1161 3
      vertex -24.7487 24.7487 3
    endloop
  endfacet
  facet normal 0 0 1
    outer loop
      vertex -24.7487 24.7487 3
      vertex -1.25 30 3
      vertex 0 35 3
    endloop
  endfacet
  facet normal -0.382683 0.92388 0
    outer loop
      vertex 0 35 0
      vertex -24.7487 24.7487 3
      vertex 0 35 3
    endloop
  endfacet
  facet normal -0.382683 0.92388 0
    outer loop
      vertex -24.7487 24.7487 3
      vertex 0 35 0
      vertex -24.7487 24.7487 0
    endloop
  endfacet
  facet normal 0.382683 -0.92388 0
    outer loop
      vertex 0 -35 0
      vertex 24.7487 -24.7487 3
      vertex 0 -35 3
    endloop
  endfacet
  facet normal 0.382683 -0.92388 0
    outer loop
      vertex 24.7487 -24.7487 3
      vertex 0 -35 0
      vertex 24.7487 -24.7487 0
    endloop
  endfacet
  facet normal -0.92388 -0.382683 0
    outer loop
      vertex -24.7487 -24.7487 0
      vertex -35 0 3
      vertex -35 0 0
    endloop
  endfacet
  facet normal -0.92388 -0.382683 0
    outer loop
      vertex -35 0 3
      vertex -24.7487 -24.7487 0
      vertex -24.7487 -24.7487 3
    endloop
  endfacet
  facet normal 0.92388 -0.382683 0
    outer loop
      vertex 24.7487 -24.7487 3
      vertex 35 0 0
      vertex 35 0 3
    endloop
  endfacet
  facet normal 0.92388 -0.382683 0
    outer loop
      vertex 35 0 0
      vertex 24.7487 -24.7487 3
      vertex 24.7487 -24.7487 0
    endloop
  endfacet
  facet normal -0.382683 -0.92388 0
    outer loop
      vertex -24.7487 -24.7487 0
      vertex 0 -35 3
      vertex -24.7487 -24.7487 3
    endloop
  endfacet
  facet normal -0.382683 -0.92388 -0
    outer loop
      vertex 0 -35 3
      vertex -24.7487 -24.7487 0
      vertex 0 -35 0
    endloop
  endfacet
  facet normal -0.92388 -0.382683 0
    outer loop
      vertex 1.25 30 0
      vertex 0.883883 30.8839 3
      vertex 0.883883 30.8839 0
    endloop
  endfacet
  facet normal -0.92388 -0.382683 0
    outer loop
      vertex 0.883883 30.8839 3
      vertex 1.25 30 0
      vertex 1.25 30 3
    endloop
  endfacet
  facet normal 0.382683 -0.92388 0
    outer loop
      vertex -0.883883 30.8839 0
      vertex 0 31.25 3
      vertex -0.883883 30.8839 3
    endloop
  endfacet
  facet normal 0.382683 -0.92388 0
    outer loop
      vertex 0 31.25 3
      vertex -0.883883 30.8839 0
      vertex 0 31.25 0
    endloop
  endfacet
  facet normal -0.382683 -0.92388 0
    outer loop
      vertex 0 31.25 0
      vertex 0.883883 30.8839 3
      vertex 0 31.25 3
    endloop
  endfacet
  facet normal -0.382683 -0.92388 -0
    outer loop
      vertex 0.883883 30.8839 3
      vertex 0 31.25 0
      vertex 0.883883 30.8839 0
    endloop
  endfacet
  facet normal 0.92388 -0.382683 0
    outer loop
      vertex -1.25 30 3
      vertex -0.883883 30.8839 0
      vertex -0.883883 30.8839 3
    endloop
  endfacet
  facet normal 0.92388 -0.382683 0
    outer loop
      vertex -0.883883 30.8839 0
      vertex -1.25 30 3
      vertex -1.25 30 0
    endloop
  endfacet
  facet normal -0.92388 0.382683 0
    outer loop
      vertex 0.883883 29.1161 0
      vertex 1.25 30 3
      vertex 1.25 30 0
    endloop
  endfacet
  facet normal -0.92388 0.382683 0
    outer loop
      vertex 1.25 30 3
      vertex 0.883883 29.1161 0
      vertex 0.883883 29.1161 3
    endloop
  endfacet
  facet normal 0.382683 0.92388 -0
    outer loop
      vertex 0 28.75 0
      vertex -0.883883 29.1161 3
      vertex 0 28.75 3
    endloop
  endfacet
  facet normal 0.382683 0.92388 0
    outer loop
      vertex -0.883883 29.1161 3
      vertex 0 28.75 0
      vertex -0.883883 29.1161 0
    endloop
  endfacet
  facet normal 0.92388 0.382683 0
    outer loop
      vertex -0.883883 29.1161 3
      vertex -1.25 30 0
      vertex -1.25 30 3
    endloop
  endfacet
  facet normal 0.92388 0.382683 0
    outer loop
      vertex -1.25 30 0
      vertex -0.883883 29.1161 3
      vertex -0.883883 29.1161 0
    endloop
  endfacet
  facet normal -0.382683 0.92388 0
    outer loop
      vertex 0.883883 29.1161 0
      vertex 0 28.75 3
      vertex 0.883883 29.1161 3
    endloop
  endfacet
  facet normal -0.382683 0.92388 0
    outer loop
      vertex 0 28.75 3
      vertex 0.883883 29.1161 0
      vertex 0 28.75 0
    endloop
  endfacet
  facet normal -0.92388 -0.382683 0
    outer loop
      vertex 1.25 -30 0
      vertex 0.883883 -29.1161 3
      vertex 0.883883 -29.1161 0
    endloop
  endfacet
  facet normal -0.92388 -0.382683 0
    outer loop
      vertex 0.883883 -29.1161 3
      vertex 1.25 -30 0
      vertex 1.25 -30 3
    endloop
  endfacet
  facet normal 0.92388 -0.382683 0
    outer loop
      vertex -1.25 -30 3
      vertex -0.883883 -29.1161 0
      vertex -0.883883 -29.1161 3
    endloop
  endfacet
  facet normal 0.92388 -0.382683 0
    outer loop
      vertex -0.883883 -29.1161 0
      vertex -1.25 -30 3
      vertex -1.25 -30 0
    endloop
  endfacet
  facet normal -0.382683 0.92388 0
    outer loop
      vertex 0.883883 -30.8839 0
      vertex 0 -31.25 3
      vertex 0.883883 -30.8839 3
    endloop
  endfacet
  facet normal -0.382683 0.92388 0
    outer loop
      vertex 0 -31.25 3
      vertex 0.883883 -30.8839 0
      vertex 0 -31.25 0
    endloop
  endfacet
  facet normal 0.382683 -0.92388 0
    outer loop
      vertex -0.883883 -29.1161 0
      vertex 0 -28.75 3
      vertex -0.883883 -29.1161 3
    endloop
  endfacet
  facet normal 0.382683 -0.92388 0
    outer loop
      vertex 0 -28.75 3
      vertex -0.883883 -29.1161 0
      vertex 0 -28.75 0
    endloop
  endfacet
  facet normal -0.382683 -0.92388 0
    outer loop
      vertex 0 -28.75 0
      vertex 0.883883 -29.1161 3
      vertex 0 -28.75 3
    endloop
  endfacet
  facet normal -0.382683 -0.92388 -0
    outer loop
      vertex 0.883883 -29.1161 3
      vertex 0 -28.75 0
      vertex 0.883883 -29.1161 0
    endloop
  endfacet
  facet normal -0.92388 0.382683 0
    outer loop
      vertex 0.883883 -30.8839 0
      vertex 1.25 -30 3
      vertex 1.25 -30 0
    endloop
  endfacet
  facet normal -0.92388 0.382683 0
    outer loop
      vertex 1.25 -30 3
      vertex 0.883883 -30.8839 0
      vertex 0.883883 -30.8839 3
    endloop
  endfacet
  facet normal 0.382683 0.92388 -0
    outer loop
      vertex 0 -31.25 0
      vertex -0.883883 -30.8839 3
      vertex 0 -31.25 3
    endloop
  endfacet
  facet normal 0.382683 0.92388 0
    outer loop
      vertex -0.883883 -30.8839 3
      vertex 0 -31.25 0
      vertex -0.883883 -30.8839 0
    endloop
  endfacet
  facet normal 0.92388 0.382683 0
    outer loop
      vertex -0.883883 -30.8839 3
      vertex -1.25 -30 0
      vertex -1.25 -30 3
    endloop
  endfacet
  facet normal 0.92388 0.382683 0
    outer loop
      vertex -1.25 -30 0
      vertex -0.883883 -30.8839 3
      vertex -0.883883 -30.8839 0
    endloop
  endfacet
  facet normal -0.92388 -0.382683 0
    outer loop
      vertex 31.25 0 0
      vertex 30.8839 0.883883 3
      vertex 30.8839 0.883883 0
    endloop
  endfacet
  facet normal -0.92388 -0.382683 0
    outer loop
      vertex 30.8839 0.883883 3
      vertex 31.25 0 0
      vertex 31.25 0 3
    endloop
  endfacet
  facet normal 0.92388 0.382683 0
    outer loop
      vertex 29.1161 -0.883883 3
      vertex 28.75 0 2.4
      vertex 28.75 0 3
    endloop
  endfacet
  facet normal 0.92388 0.382683 0
    outer loop
      vertex 28.75 0 2.4
      vertex 29.1161 -0.883883 3
      vertex 29.1161 -0.883883 2.4
    endloop
  endfacet
  facet normal 0.382683 -0.92388 0
    outer loop
      vertex 29.5 1.04289 2.4
      vertex 29.1161 0.883883 3
      vertex 29.1161 0.883883 2.4
    endloop
  endfacet
  facet normal 0.382683 -0.92388 4.9833e-08
    outer loop
      vertex 29.1161 0.883883 3
      vertex 29.5 1.04289 2.4
      vertex 30 1.25 3
    endloop
  endfacet
  facet normal 0.382683 -0.92388 0
    outer loop
      vertex 30 1.25 0
      vertex 29.5 1.04289 2.4
      vertex 29.5 1.04289 0
    endloop
  endfacet
  facet normal 0.382683 -0.92388 0
    outer loop
      vertex 29.5 1.04289 2.4
      vertex 30 1.25 0
      vertex 30 1.25 3
    endloop
  endfacet
  facet normal -0.382683 -0.92388 0
    outer loop
      vertex 30 1.25 0
      vertex 30.8839 0.883883 3
      vertex 30 1.25 3
    endloop
  endfacet
  facet normal -0.382683 -0.92388 -0
    outer loop
      vertex 30.8839 0.883883 3
      vertex 30 1.25 0
      vertex 30.8839 0.883883 0
    endloop
  endfacet
  facet normal 0.92388 -0.382683 0
    outer loop
      vertex 28.75 0 3
      vertex 29.1161 0.883883 2.4
      vertex 29.1161 0.883883 3
    endloop
  endfacet
  facet normal 0.92388 -0.382683 0
    outer loop
      vertex 29.1161 0.883883 2.4
      vertex 28.75 0 3
      vertex 28.75 0 2.4
    endloop
  endfacet
  facet normal -0.92388 0.382683 0
    outer loop
      vertex 30.8839 -0.883883 0
      vertex 31.25 0 3
      vertex 31.25 0 0
    endloop
  endfacet
  facet normal -0.92388 0.382683 0
    outer loop
      vertex 31.25 0 3
      vertex 30.8839 -0.883883 0
      vertex 30.8839 -0.883883 3
    endloop
  endfacet
  facet normal -0.382683 0.92388 0
    outer loop
      vertex 30.8839 -0.883883 0
      vertex 30 -1.25 3
      vertex 30.8839 -0.883883 3
    endloop
  endfacet
  facet normal -0.382683 0.92388 0
    outer loop
      vertex 30 -1.25 3
      vertex 30.8839 -0.883883 0
      vertex 30 -1.25 0
    endloop
  endfacet
  facet normal 0.382683 0.92388 4.9833e-08
    outer loop
      vertex 30 -1.25 3
      vertex 29.5 -1.04289 2.4
      vertex 29.1161 -0.883883 3
    endloop
  endfacet
  facet normal 0.382683 0.92388 -0
    outer loop
      vertex 30 -1.25 0
      vertex 29.5 -1.04289 2.4
      vertex 30 -1.25 3
    endloop
  endfacet
  facet normal 0.382683 0.92388 0
    outer loop
      vertex 29.5 -1.04289 2.4
      vertex 30 -1.25 0
      vertex 29.5 -1.04289 0
    endloop
  endfacet
  facet normal 0.382683 0.92388 0
    outer loop
      vertex 29.1161 -0.883883 3
      vertex 29.5 -1.04289 2.4
      vertex 29.1161 -0.883883 2.4
    endloop
  endfacet
  facet normal -0.92388 -0.382683 0
    outer loop
      vertex -28.75 0 0
      vertex -29.1161 0.883883 3
      vertex -29.1161 0.883883 0
    endloop
  endfacet
  facet normal -0.92388 -0.382683 0
    outer loop
      vertex -29.1161 0.883883 3
      vertex -28.75 0 0
      vertex -28.75 0 3
    endloop
  endfacet
  facet normal 0.92388 -0.382683 0
    outer loop
      vertex -31.25 0 3
      vertex -30.8839 0.883883 0
      vertex -30.8839 0.883883 3
    endloop
  endfacet
  facet normal 0.92388 -0.382683 0
    outer loop
      vertex -30.8839 0.883883 0
      vertex -31.25 0 3
      vertex -31.25 0 0
    endloop
  endfacet
  facet normal -0.382683 -0.92388 0
    outer loop
      vertex -30 1.25 0
      vertex -29.1161 0.883883 3
      vertex -30 1.25 3
    endloop
  endfacet
  facet normal -0.382683 -0.92388 -0
    outer loop
      vertex -29.1161 0.883883 3
      vertex -30 1.25 0
      vertex -29.1161 0.883883 0
    endloop
  endfacet
  facet normal -0.382683 0.92388 0
    outer loop
      vertex -29.1161 -0.883883 0
      vertex -30 -1.25 3
      vertex -29.1161 -0.883883 3
    endloop
  endfacet
  facet normal -0.382683 0.92388 0
    outer loop
      vertex -30 -1.25 3
      vertex -29.1161 -0.883883 0
      vertex -30 -1.25 0
    endloop
  endfacet
  facet normal 0.382683 -0.92388 0
    outer loop
      vertex -30.8839 0.883883 0
      vertex -30 1.25 3
      vertex -30.8839 0.883883 3
    endloop
  endfacet
  facet normal 0.382683 -0.92388 0
    outer loop
      vertex -30 1.25 3
      vertex -30.8839 0.883883 0
      vertex -30 1.25 0
    endloop
  endfacet
  facet normal -0.92388 0.382683 0
    outer loop
      vertex -29.1161 -0.883883 0
      vertex -28.75 0 3
      vertex -28.75 0 0
    endloop
  endfacet
  facet normal -0.92388 0.382683 0
    outer loop
      vertex -28.75 0 3
      vertex -29.1161 -0.883883 0
      vertex -29.1161 -0.883883 3
    endloop
  endfacet
  facet normal 0.382683 0.92388 -0
    outer loop
      vertex -30 -1.25 0
      vertex -30.8839 -0.883883 3
      vertex -30 -1.25 3
    endloop
  endfacet
  facet normal 0.382683 0.92388 0
    outer loop
      vertex -30.8839 -0.883883 3
      vertex -30 -1.25 0
      vertex -30.8839 -0.883883 0
    endloop
  endfacet
  facet normal 0.92388 0.382683 0
    outer loop
      vertex -30.8839 -0.883883 3
      vertex -31.25 0 0
      vertex -31.25 0 3
    endloop
  endfacet
  facet normal 0.92388 0.382683 0
    outer loop
      vertex -31.25 0 0
      vertex -30.8839 -0.883883 3
      vertex -30.8839 -0.883883 0
    endloop
  endfacet
  facet normal 1 -0 0
    outer loop
      vertex 21.5 -11.5 2.4
      vertex 21.5 11.5 0
      vertex 21.5 11.5 2.4
    endloop
  endfacet
  facet normal 1 0 0
    outer loop
      vertex 21.5 11.5 0
      vertex 21.5 -11.5 2.4
      vertex 21.5 -11.5 0
    endloop
  endfacet
  facet normal 0 0 -1
    outer loop
      vertex 29.5 -11.5 2.4
      vertex 29.1161 -0.883883 2.4
      vertex 29.5 -1.04289 2.4
    endloop
  endfacet
  facet normal 0 0 -1
    outer loop
      vertex 21.5 -11.5 2.4
      vertex 29.1161 -0.883883 2.4
      vertex 29.5 -11.5 2.4
    endloop
  endfacet
  facet normal -0 0 -1
    outer loop
      vertex 29.1161 -0.883883 2.4
      vertex 21.5 -11.5 2.4
      vertex 28.75 0 2.4
    endloop
  endfacet
  facet normal 0 0 -1
    outer loop
      vertex 29.1161 0.883883 2.4
      vertex 29.5 11.5 2.4
      vertex 29.5 1.04289 2.4
    endloop
  endfacet
  facet normal 0 0 -1
    outer loop
      vertex 21.5 11.5 2.4
      vertex 29.1161 0.883883 2.4
      vertex 28.75 0 2.4
    endloop
  endfacet
  facet normal 0 0 -1
    outer loop
      vertex 21.5 11.5 2.4
      vertex 28.75 0 2.4
      vertex 21.5 -11.5 2.4
    endloop
  endfacet
  facet normal 0 0 -1
    outer loop
      vertex 29.1161 0.883883 2.4
      vertex 21.5 11.5 2.4
      vertex 29.5 11.5 2.4
    endloop
  endfacet
  facet normal -1 0 0
    outer loop
      vertex 29.5 -11.5 0
      vertex 29.5 -1.04289 2.4
      vertex 29.5 -1.04289 0
    endloop
  endfacet
  facet normal -1 -0 0
    outer loop
      vertex 29.5 -1.04289 2.4
      vertex 29.5 -11.5 0
      vertex 29.5 -11.5 2.4
    endloop
  endfacet
  facet normal -1 0 0
    outer loop
      vertex 29.5 1.04289 0
      vertex 29.5 11.5 2.4
      vertex 29.5 11.5 0
    endloop
  endfacet
  facet normal -1 -0 0
    outer loop
      vertex 29.5 11.5 2.4
      vertex 29.5 1.04289 0
      vertex 29.5 1.04289 2.4
    endloop
  endfacet
  facet normal 0 1 -0
    outer loop
      vertex 29.5 -11.5 0
      vertex 21.5 -11.5 2.4
      vertex 29.5 -11.5 2.4
    endloop
  endfacet
  facet normal 0 1 0
    outer loop
      vertex 21.5 -11.5 2.4
      vertex 29.5 -11.5 0
      vertex 21.5 -11.5 0
    endloop
  endfacet
  facet normal 0 -1 0
    outer loop
      vertex 21.5 11.5 0
      vertex 29.5 11.5 2.4
      vertex 21.5 11.5 2.4
    endloop
  endfacet
  facet normal 0 -1 -0
    outer loop
      vertex 29.5 11.5 2.4
      vertex 21.5 11.5 0
      vertex 29.5 11.5 0
    endloop
  endfacet
  facet normal -1 0 0
    outer loop
      vertex -21.5 -11.5 -2
      vertex -21.5 11.5 0
      vertex -21.5 11.5 -2
    endloop
  endfacet
  facet normal -1 -0 0
    outer loop
      vertex -21.5 11.5 0
      vertex -21.5 -11.5 -2
      vertex -21.5 -11.5 0
    endloop
  endfacet
  facet normal 1 -0 0
    outer loop
      vertex 21.5 -11.5 0
      vertex 21.5 11.5 -2
      vertex 21.5 11.5 0
    endloop
  endfacet
  facet normal 1 0 0
    outer loop
      vertex 21.5 11.5 -2
      vertex 21.5 -11.5 0
      vertex 21.5 -11.5 -2
    endloop
  endfacet
  facet normal 0 0 -1
    outer loop
      vertex -21.5 -11.5 -2
      vertex 21.5 11.5 -2
      vertex 21.5 -11.5 -2
    endloop
  endfacet
  facet normal -0 0 -1
    outer loop
      vertex 21.5 11.5 -2
      vertex -21.5 -11.5 -2
      vertex -21.5 11.5 -2
    endloop
  endfacet
  facet normal 0 -1 0
    outer loop
      vertex -21.5 -11.5 -2
      vertex 21.5 -11.5 0
      vertex -21.5 -11.5 0
    endloop
  endfacet
  facet normal 0 -1 -0
    outer loop
      vertex 21.5 -11.5 0
      vertex -21.5 -11.5 -2
      vertex 21.5 -11.5 -2
    endloop
  endfacet
  facet normal 0 1 -0
    outer loop
      vertex 21.5 11.5 -2
      vertex -21.5 11.5 0
      vertex 21.5 11.5 0
    endloop
  endfacet
  facet normal 0 1 0
    outer loop
      vertex -21.5 11.5 0
      vertex 21.5 11.5 -2
      vertex -21.5 11.5 -2
    endloop
  endfacet
endsolid OpenSCAD_Model
