solid OpenSCAD_Model
  facet normal 0.92388 0.382683 0
    outer loop
      vertex 35 0 20
      vertex 24.7487 24.7487 0
      vertex 24.7487 24.7487 20
    endloop
  endfacet
  facet normal 0.92388 0.382683 0
    outer loop
      vertex 24.7487 24.7487 0
      vertex 35 0 20
      vertex 35 0 0
    endloop
  endfacet
  facet normal -0.92388 0.382683 0
    outer loop
      vertex -35 0 0
      vertex -24.7487 24.7487 20
      vertex -24.7487 24.7487 0
    endloop
  endfacet
  facet normal -0.92388 0.382683 0
    outer loop
      vertex -24.7487 24.7487 20
      vertex -35 0 0
      vertex -35 0 20
    endloop
  endfacet
  facet normal 0.382683 0.92388 -0
    outer loop
      vertex 24.7487 24.7487 0
      vertex 0 35 20
      vertex 24.7487 24.7487 20
    endloop
  endfacet
  facet normal 0.382683 0.92388 0
    outer loop
      vertex 0 35 20
      vertex 24.7487 24.7487 0
      vertex 0 35 0
    endloop
  endfacet
  facet normal 0 0 -1
    outer loop
      vertex 0 2.5 0
      vertex 1.35 6.1 0
      vertex 1.76777 1.76777 0
    endloop
  endfacet
  facet normal 0 0 -1
    outer loop
      vertex 0 2.5 0
      vertex -1.35 6.1 0
      vertex 1.35 6.1 0
    endloop
  endfacet
  facet normal 0 0 -1
    outer loop
      vertex -2.5 0 0
      vertex -1.35 6.1 0
      vertex -1.76777 1.76777 0
    endloop
  endfacet
  facet normal 0 0 -1
    outer loop
      vertex -1.76777 1.76777 0
      vertex -1.35 6.1 0
      vertex 0 2.5 0
    endloop
  endfacet
  facet normal 0 0 -1
    outer loop
      vertex 1.35 -8.25 0
      vertex 35 0 0
      vertex 24.7487 -24.7487 0
    endloop
  endfacet
  facet normal 0 0 -1
    outer loop
      vertex 1.35 6.1 0
      vertex 35 0 0
      vertex 2.5 0 0
    endloop
  endfacet
  facet normal -0 0 -1
    outer loop
      vertex 35 0 0
      vertex 1.35 -6.1 0
      vertex 2.5 0 0
    endloop
  endfacet
  facet normal 0 0 -1
    outer loop
      vertex 35 0 0
      vertex 1.35 -8.25 0
      vertex 1.35 -6.1 0
    endloop
  endfacet
  facet normal 0 0 -1
    outer loop
      vertex 0 -35 0
      vertex 1.35 -8.25 0
      vertex 24.7487 -24.7487 0
    endloop
  endfacet
  facet normal 0 0 -1
    outer loop
      vertex 0 -35 0
      vertex -1.35 -8.25 0
      vertex 1.35 -8.25 0
    endloop
  endfacet
  facet normal 0 0 -1
    outer loop
      vertex -35 0 0
      vertex -1.35 -6.1 0
      vertex -1.35 -8.25 0
    endloop
  endfacet
  facet normal 0 0 -1
    outer loop
      vertex -24.7487 -24.7487 0
      vertex -1.35 -8.25 0
      vertex 0 -35 0
    endloop
  endfacet
  facet normal 0 0 -1
    outer loop
      vertex -35 0 0
      vertex -1.35 -8.25 0
      vertex -24.7487 -24.7487 0
    endloop
  endfacet
  facet normal 0 0 -1
    outer loop
      vertex -1.35 -6.1 0
      vertex -2.5 0 0
      vertex -1.76777 -1.76777 0
    endloop
  endfacet
  facet normal 0 0 -1
    outer loop
      vertex 1.35 6.1 0
      vertex 2.5 0 0
      vertex 1.76777 1.76777 0
    endloop
  endfacet
  facet normal 0 0 -1
    outer loop
      vertex 1.35 8.25 0
      vertex 35 0 0
      vertex 1.35 6.1 0
    endloop
  endfacet
  facet normal 0 0 -1
    outer loop
      vertex 35 0 0
      vertex 1.35 8.25 0
      vertex 24.7487 24.7487 0
    endloop
  endfacet
  facet normal 0 0 -1
    outer loop
      vertex 1.35 8.25 0
      vertex 0 35 0
      vertex 24.7487 24.7487 0
    endloop
  endfacet
  facet normal 0 0 -1
    outer loop
      vertex -1.35 8.25 0
      vertex 0 35 0
      vertex 1.35 8.25 0
    endloop
  endfacet
  facet normal 0 0 -1
    outer loop
      vertex -35 0 0
      vertex -1.35 6.1 0
      vertex -2.5 0 0
    endloop
  endfacet
  facet normal -0 0 -1
    outer loop
      vertex -1.35 6.1 0
      vertex -35 0 0
      vertex -1.35 8.25 0
    endloop
  endfacet
  facet normal 0 0 -1
    outer loop
      vertex -1.35 -6.1 0
      vertex -35 0 0
      vertex -2.5 0 0
    endloop
  endfacet
  facet normal 0 0 -1
    outer loop
      vertex -1.35 8.25 0
      vertex -24.7487 24.7487 0
      vertex 0 35 0
    endloop
  endfacet
  facet normal -0 0 -1
    outer loop
      vertex -1.35 8.25 0
      vertex -35 0 0
      vertex -24.7487 24.7487 0
    endloop
  endfacet
  facet normal 0 0 -1
    outer loop
      vertex 2.5 0 0
      vertex 1.35 -6.1 0
      vertex 1.76777 -1.76777 0
    endloop
  endfacet
  facet normal 0 0 -1
    outer loop
      vertex 1.35 -6.1 0
      vertex 0 -2.5 0
      vertex 1.76777 -1.76777 0
    endloop
  endfacet
  facet normal 0 0 -1
    outer loop
      vertex -1.35 -6.1 0
      vertex 0 -2.5 0
      vertex 1.35 -6.1 0
    endloop
  endfacet
  facet normal -0 0 -1
    outer loop
      vertex 0 -2.5 0
      vertex -1.35 -6.1 0
      vertex -1.76777 -1.76777 0
    endloop
  endfacet
  facet normal 0 0 1
    outer loop
      vertex 24.7487 24.7487 20
      vertex 0.883883 30.8839 20
      vertex 1.25 30 20
    endloop
  endfacet
  facet normal 0 0 1
    outer loop
      vertex 0 35 20
      vertex 0.883883 30.8839 20
      vertex 24.7487 24.7487 20
    endloop
  endfacet
  facet normal 0 0 1
    outer loop
      vertex 0 35 20
      vertex 0 31.25 20
      vertex 0.883883 30.8839 20
    endloop
  endfacet
  facet normal 0 0 1
    outer loop
      vertex 0 35 20
      vertex -0.883883 30.8839 20
      vertex 0 31.25 20
    endloop
  endfacet
  facet normal 0 0 1
    outer loop
      vertex 0 35 20
      vertex -1.25 30 20
      vertex -0.883883 30.8839 20
    endloop
  endfacet
  facet normal 0 -0 1
    outer loop
      vertex -1.25 30 20
      vertex 0 35 20
      vertex -24.7487 24.7487 20
    endloop
  endfacet
  facet normal 0 0 1
    outer loop
      vertex 35 0 20
      vertex 30.8839 0.883883 20
      vertex 31.25 0 20
    endloop
  endfacet
  facet normal 0 0 1
    outer loop
      vertex 25.5 12 20
      vertex 30.8839 0.883883 20
      vertex 35 0 20
    endloop
  endfacet
  facet normal 0 0 1
    outer loop
      vertex 29.1161 0.883883 20
      vertex 25.5 12 20
      vertex 28.75 0 20
    endloop
  endfacet
  facet normal 0 0 1
    outer loop
      vertex 30 1.25 20
      vertex 25.5 12 20
      vertex 29.1161 0.883883 20
    endloop
  endfacet
  facet normal 0 0 1
    outer loop
      vertex 30.8839 0.883883 20
      vertex 25.5 12 20
      vertex 30 1.25 20
    endloop
  endfacet
  facet normal 0 0 1
    outer loop
      vertex 24.7487 24.7487 20
      vertex 25.5 12 20
      vertex 35 0 20
    endloop
  endfacet
  facet normal -0 0 1
    outer loop
      vertex 0.883883 29.1161 20
      vertex 24.7487 24.7487 20
      vertex 1.25 30 20
    endloop
  endfacet
  facet normal 0 0 1
    outer loop
      vertex 24.7487 24.7487 20
      vertex 0.883883 29.1161 20
      vertex 25.5 12 20
    endloop
  endfacet
  facet normal -0 0 1
    outer loop
      vertex 0 28.75 20
      vertex 25.5 12 20
      vertex 0.883883 29.1161 20
    endloop
  endfacet
  facet normal 0 0 1
    outer loop
      vertex -25.5 12 20
      vertex 0 28.75 20
      vertex -0.883883 29.1161 20
    endloop
  endfacet
  facet normal 0 0 1
    outer loop
      vertex -24.7487 24.7487 20
      vertex -0.883883 29.1161 20
      vertex -1.25 30 20
    endloop
  endfacet
  facet normal 0 0 1
    outer loop
      vertex -25.5 12 20
      vertex -0.883883 29.1161 20
      vertex -24.7487 24.7487 20
    endloop
  endfacet
  facet normal 0 0 1
    outer loop
      vertex 0 28.75 20
      vertex -25.5 12 20
      vertex 25.5 12 20
    endloop
  endfacet
  facet normal 0 0 1
    outer loop
      vertex -25.5 12 20
      vertex -28.75 0 20
      vertex -25.5 -12 20
    endloop
  endfacet
  facet normal 0 0 1
    outer loop
      vertex -35 0 20
      vertex -25.5 12 20
      vertex -24.7487 24.7487 20
    endloop
  endfacet
  facet normal 0 0 1
    outer loop
      vertex -25.5 12 20
      vertex -29.1161 0.883883 20
      vertex -28.75 0 20
    endloop
  endfacet
  facet normal 0 0 1
    outer loop
      vertex -25.5 12 20
      vertex -30 1.25 20
      vertex -29.1161 0.883883 20
    endloop
  endfacet
  facet normal 0 0 1
    outer loop
      vertex -25.5 12 20
      vertex -30.8839 0.883883 20
      vertex -30 1.25 20
    endloop
  endfacet
  facet normal 0 0 1
    outer loop
      vertex -25.5 12 20
      vertex -35 0 20
      vertex -30.8839 0.883883 20
    endloop
  endfacet
  facet normal 0 0 1
    outer loop
      vertex -30.8839 0.883883 20
      vertex -35 0 20
      vertex -31.25 0 20
    endloop
  endfacet
  facet normal 0 0 1
    outer loop
      vertex 30.8839 -0.883883 20
      vertex 35 0 20
      vertex 31.25 0 20
    endloop
  endfacet
  facet normal 0 0 1
    outer loop
      vertex 25.5 -12 20
      vertex 30.8839 -0.883883 20
      vertex 30 -1.25 20
    endloop
  endfacet
  facet normal 0 0 1
    outer loop
      vertex 25.5 -12 20
      vertex 28.75 0 20
      vertex 25.5 12 20
    endloop
  endfacet
  facet normal 0 0 1
    outer loop
      vertex 25.5 -12 20
      vertex 29.1161 -0.883883 20
      vertex 28.75 0 20
    endloop
  endfacet
  facet normal 0 0 1
    outer loop
      vertex 25.5 -12 20
      vertex 30 -1.25 20
      vertex 29.1161 -0.883883 20
    endloop
  endfacet
  facet normal -0 0 1
    outer loop
      vertex 30.8839 -0.883883 20
      vertex 25.5 -12 20
      vertex 35 0 20
    endloop
  endfacet
  facet normal -0 0 1
    outer loop
      vertex 25.5 -12 20
      vertex 24.7487 -24.7487 20
      vertex 35 0 20
    endloop
  endfacet
  facet normal 0 0 1
    outer loop
      vertex 0.883883 -29.1161 20
      vertex 24.7487 -24.7487 20
      vertex 25.5 -12 20
    endloop
  endfacet
  facet normal 0 0 1
    outer loop
      vertex 24.7487 -24.7487 20
      vertex 0.883883 -29.1161 20
      vertex 1.25 -30 20
    endloop
  endfacet
  facet normal 0 0 1
    outer loop
      vertex 25.5 -12 20
      vertex 0 -28.75 20
      vertex 0.883883 -29.1161 20
    endloop
  endfacet
  facet normal -0 0 1
    outer loop
      vertex -25.5 -12 20
      vertex 0 -28.75 20
      vertex 25.5 -12 20
    endloop
  endfacet
  facet normal 0 0 1
    outer loop
      vertex -0.883883 -29.1161 20
      vertex -24.7487 -24.7487 20
      vertex -1.25 -30 20
    endloop
  endfacet
  facet normal 0 0 1
    outer loop
      vertex 0 -28.75 20
      vertex -25.5 -12 20
      vertex -0.883883 -29.1161 20
    endloop
  endfacet
  facet normal 0 0 1
    outer loop
      vertex -0.883883 -29.1161 20
      vertex -25.5 -12 20
      vertex -24.7487 -24.7487 20
    endloop
  endfacet
  facet normal -0 0 1
    outer loop
      vertex -29.1161 -0.883883 20
      vertex -25.5 -12 20
      vertex -28.75 0 20
    endloop
  endfacet
  facet normal -0 0 1
    outer loop
      vertex -30 -1.25 20
      vertex -25.5 -12 20
      vertex -29.1161 -0.883883 20
    endloop
  endfacet
  facet normal 0 0 1
    outer loop
      vertex -30.8839 -0.883883 20
      vertex -25.5 -12 20
      vertex -30 -1.25 20
    endloop
  endfacet
  facet normal 0 0 1
    outer loop
      vertex -35 0 20
      vertex -25.5 -12 20
      vertex -30.8839 -0.883883 20
    endloop
  endfacet
  facet normal -0 0 1
    outer loop
      vertex -35 0 20
      vertex -30.8839 -0.883883 20
      vertex -31.25 0 20
    endloop
  endfacet
  facet normal 0 0 1
    outer loop
      vertex -25.5 -12 20
      vertex -35 0 20
      vertex -24.7487 -24.7487 20
    endloop
  endfacet
  facet normal 0 0 1
    outer loop
      vertex 0.883883 -30.8839 20
      vertex 24.7487 -24.7487 20
      vertex 1.25 -30 20
    endloop
  endfacet
  facet normal 0 0 1
    outer loop
      vertex 0 -35 20
      vertex 0.883883 -30.8839 20
      vertex 0 -31.25 20
    endloop
  endfacet
  facet normal -0 0 1
    outer loop
      vertex 0.883883 -30.8839 20
      vertex 0 -35 20
      vertex 24.7487 -24.7487 20
    endloop
  endfacet
  facet normal 0 0 1
    outer loop
      vertex -0.883883 -30.8839 20
      vertex 0 -35 20
      vertex 0 -31.25 20
    endloop
  endfacet
  facet normal 0 0 1
    outer loop
      vertex -1.25 -30 20
      vertex 0 -35 20
      vertex -0.883883 -30.8839 20
    endloop
  endfacet
  facet normal 0 0 1
    outer loop
      vertex 0 -35 20
      vertex -1.25 -30 20
      vertex -24.7487 -24.7487 20
    endloop
  endfacet
  facet normal -0.382683 0.92388 0
    outer loop
      vertex 0 35 0
      vertex -24.7487 24.7487 20
      vertex 0 35 20
    endloop
  endfacet
  facet normal -0.382683 0.92388 0
    outer loop
      vertex -24.7487 24.7487 20
      vertex 0 35 0
      vertex -24.7487 24.7487 0
    endloop
  endfacet
  facet normal 0.382683 -0.92388 0
    outer loop
      vertex 0 -35 0
      vertex 24.7487 -24.7487 20
      vertex 0 -35 20
    endloop
  endfacet
  facet normal 0.382683 -0.92388 0
    outer loop
      vertex 24.7487 -24.7487 20
      vertex 0 -35 0
      vertex 24.7487 -24.7487 0
    endloop
  endfacet
  facet normal -0.92388 -0.382683 0
    outer loop
      vertex -24.7487 -24.7487 0
      vertex -35 0 20
      vertex -35 0 0
    endloop
  endfacet
  facet normal -0.92388 -0.382683 0
    outer loop
      vertex -35 0 20
      vertex -24.7487 -24.7487 0
      vertex -24.7487 -24.7487 20
    endloop
  endfacet
  facet normal 0.923879 -0.382684 0
    outer loop
      vertex 33.6419 -3.27867 10.75
      vertex 35 0 20
      vertex 33.6419 -3.27867 16.25
    endloop
  endfacet
  facet normal 0.92388 -0.382683 -3.69701e-07
    outer loop
      vertex 35 0 20
      vertex 29.6238 -12.9794 16.25
      vertex 33.6419 -3.27867 16.25
    endloop
  endfacet
  facet normal 0.92388 -0.382683 0
    outer loop
      vertex 29.6238 -12.9794 16.25
      vertex 24.7487 -24.7487 20
      vertex 29.6238 -12.9794 10.75
    endloop
  endfacet
  facet normal 0.92388 -0.382683 -3.43618e-08
    outer loop
      vertex 24.7487 -24.7487 20
      vertex 29.6238 -12.9794 16.25
      vertex 35 0 20
    endloop
  endfacet
  facet normal 0.923879 -0.382684 0
    outer loop
      vertex 35 0 20
      vertex 33.6419 -3.27867 10.75
      vertex 35 0 0
    endloop
  endfacet
  facet normal 0.92388 -0.382683 1.28965e-07
    outer loop
      vertex 29.6238 -12.9794 10.75
      vertex 35 0 0
      vertex 33.6419 -3.27867 10.75
    endloop
  endfacet
  facet normal 0.92388 -0.382683 0
    outer loop
      vertex 24.7487 -24.7487 0
      vertex 29.6238 -12.9794 10.75
      vertex 24.7487 -24.7487 20
    endloop
  endfacet
  facet normal 0.92388 -0.382683 1.19867e-08
    outer loop
      vertex 29.6238 -12.9794 10.75
      vertex 24.7487 -24.7487 0
      vertex 35 0 0
    endloop
  endfacet
  facet normal -0.382683 -0.92388 0
    outer loop
      vertex -24.7487 -24.7487 0
      vertex 0 -35 20
      vertex -24.7487 -24.7487 20
    endloop
  endfacet
  facet normal -0.382683 -0.92388 -0
    outer loop
      vertex 0 -35 20
      vertex -24.7487 -24.7487 0
      vertex 0 -35 0
    endloop
  endfacet
  facet normal -0.92388 -0.382683 0
    outer loop
      vertex 2.5 0 0
      vertex 1.76777 1.76777 8
      vertex 1.76777 1.76777 0
    endloop
  endfacet
  facet normal -0.92388 -0.382683 0
    outer loop
      vertex 1.76777 1.76777 8
      vertex 2.5 0 0
      vertex 2.5 0 8
    endloop
  endfacet
  facet normal 0.92388 -0.382683 0
    outer loop
      vertex -2.5 0 8
      vertex -1.76777 1.76777 0
      vertex -1.76777 1.76777 8
    endloop
  endfacet
  facet normal 0.92388 -0.382683 0
    outer loop
      vertex -1.76777 1.76777 0
      vertex -2.5 0 8
      vertex -2.5 0 0
    endloop
  endfacet
  facet normal -0.382683 -0.92388 0
    outer loop
      vertex 0 2.5 0
      vertex 1.76777 1.76777 8
      vertex 0 2.5 8
    endloop
  endfacet
  facet normal -0.382683 -0.92388 -0
    outer loop
      vertex 1.76777 1.76777 8
      vertex 0 2.5 0
      vertex 1.76777 1.76777 0
    endloop
  endfacet
  facet normal 0.382683 -0.92388 0
    outer loop
      vertex -1.76777 1.76777 0
      vertex 0 2.5 8
      vertex -1.76777 1.76777 8
    endloop
  endfacet
  facet normal 0.382683 -0.92388 0
    outer loop
      vertex 0 2.5 8
      vertex -1.76777 1.76777 0
      vertex 0 2.5 0
    endloop
  endfacet
  facet normal -0.382683 0.92388 0
    outer loop
      vertex 1.76777 -1.76777 0
      vertex 0 -2.5 8
      vertex 1.76777 -1.76777 8
    endloop
  endfacet
  facet normal -0.382683 0.92388 0
    outer loop
      vertex 0 -2.5 8
      vertex 1.76777 -1.76777 0
      vertex 0 -2.5 0
    endloop
  endfacet
  facet normal 0.92388 0.382683 0
    outer loop
      vertex -1.76777 -1.76777 8
      vertex -2.5 0 0
      vertex -2.5 0 8
    endloop
  endfacet
  facet normal 0.92388 0.382683 0
    outer loop
      vertex -2.5 0 0
      vertex -1.76777 -1.76777 8
      vertex -1.76777 -1.76777 0
    endloop
  endfacet
  facet normal 0.382683 0.92388 -0
    outer loop
      vertex 0 -2.5 0
      vertex -1.76777 -1.76777 8
      vertex 0 -2.5 8
    endloop
  endfacet
  facet normal 0.382683 0.92388 0
    outer loop
      vertex -1.76777 -1.76777 8
      vertex 0 -2.5 0
      vertex -1.76777 -1.76777 0
    endloop
  endfacet
  facet normal -0.92388 0.382683 0
    outer loop
      vertex 1.76777 -1.76777 0
      vertex 2.5 0 8
      vertex 2.5 0 0
    endloop
  endfacet
  facet normal -0.92388 0.382683 0
    outer loop
      vertex 2.5 0 8
      vertex 1.76777 -1.76777 0
      vertex 1.76777 -1.76777 8
    endloop
  endfacet
  facet normal 1 -0 0
    outer loop
      vertex -25.5 -12 20
      vertex -25.5 12 8
      vertex -25.5 12 20
    endloop
  endfacet
  facet normal 1 0 0
    outer loop
      vertex -25.5 12 8
      vertex -25.5 -12 20
      vertex -25.5 -12 8
    endloop
  endfacet
  facet normal -1 0 0
    outer loop
      vertex 25.5 0.0938286 16.25
      vertex 25.5 12 8
      vertex 25.5 0.0938286 10.75
    endloop
  endfacet
  facet normal -1 0 0
    outer loop
      vertex 25.5 -12 8
      vertex 25.5 0.0938286 10.75
      vertex 25.5 12 8
    endloop
  endfacet
  facet normal -1 -0 0
    outer loop
      vertex 25.5 -11.2713 10.75
      vertex 25.5 -12 8
      vertex 25.5 -11.2713 16.25
    endloop
  endfacet
  facet normal -1 -0 0
    outer loop
      vertex 25.5 0.0938286 10.75
      vertex 25.5 -12 8
      vertex 25.5 -11.2713 10.75
    endloop
  endfacet
  facet normal -1 0 0
    outer loop
      vertex 25.5 12 8
      vertex 25.5 0.0938286 16.25
      vertex 25.5 12 20
    endloop
  endfacet
  facet normal -1 0 0
    outer loop
      vertex 25.5 -12 20
      vertex 25.5 0.0938286 16.25
      vertex 25.5 -11.2713 16.25
    endloop
  endfacet
  facet normal -1 0 0
    outer loop
      vertex 25.5 0.0938286 16.25
      vertex 25.5 -12 20
      vertex 25.5 12 20
    endloop
  endfacet
  facet normal -1 0 0
    outer loop
      vertex 25.5 -12 20
      vertex 25.5 -11.2713 16.25
      vertex 25.5 -12 8
    endloop
  endfacet
  facet normal 0 0 1
    outer loop
      vertex 25.5 12 8
      vertex 2.5 0 8
      vertex 25.5 -12 8
    endloop
  endfacet
  facet normal 0 0 1
    outer loop
      vertex 25.5 12 8
      vertex 1.76777 1.76777 8
      vertex 2.5 0 8
    endloop
  endfacet
  facet normal 0 0 1
    outer loop
      vertex 25.5 12 8
      vertex 0 2.5 8
      vertex 1.76777 1.76777 8
    endloop
  endfacet
  facet normal 0 0 1
    outer loop
      vertex -1.76777 1.76777 8
      vertex -25.5 12 8
      vertex -2.5 0 8
    endloop
  endfacet
  facet normal 0 0 1
    outer loop
      vertex 0 2.5 8
      vertex -25.5 12 8
      vertex -1.76777 1.76777 8
    endloop
  endfacet
  facet normal -0 0 1
    outer loop
      vertex -25.5 12 8
      vertex 0 2.5 8
      vertex 25.5 12 8
    endloop
  endfacet
  facet normal -0 0 1
    outer loop
      vertex 1.76777 -1.76777 8
      vertex 25.5 -12 8
      vertex 2.5 0 8
    endloop
  endfacet
  facet normal -0 0 1
    outer loop
      vertex 0 -2.5 8
      vertex 25.5 -12 8
      vertex 1.76777 -1.76777 8
    endloop
  endfacet
  facet normal 0 0 1
    outer loop
      vertex -25.5 -12 8
      vertex -2.5 0 8
      vertex -25.5 12 8
    endloop
  endfacet
  facet normal 0 0 1
    outer loop
      vertex 0 -2.5 8
      vertex -25.5 -12 8
      vertex 25.5 -12 8
    endloop
  endfacet
  facet normal 0 0 1
    outer loop
      vertex -1.76777 -1.76777 8
      vertex -25.5 -12 8
      vertex 0 -2.5 8
    endloop
  endfacet
  facet normal 0 0 1
    outer loop
      vertex -2.5 0 8
      vertex -25.5 -12 8
      vertex -1.76777 -1.76777 8
    endloop
  endfacet
  facet normal 0 1 -0
    outer loop
      vertex 25.5 -12 8
      vertex -25.5 -12 20
      vertex 25.5 -12 20
    endloop
  endfacet
  facet normal 0 1 0
    outer loop
      vertex -25.5 -12 20
      vertex 25.5 -12 8
      vertex -25.5 -12 8
    endloop
  endfacet
  facet normal 0 -1 0
    outer loop
      vertex -25.5 12 8
      vertex 25.5 12 20
      vertex -25.5 12 20
    endloop
  endfacet
  facet normal 0 -1 -0
    outer loop
      vertex 25.5 12 20
      vertex -25.5 12 8
      vertex 25.5 12 8
    endloop
  endfacet
  facet normal -0.92388 -0.382683 0
    outer loop
      vertex 1.25 30 5
      vertex 0.883883 30.8839 20
      vertex 0.883883 30.8839 5
    endloop
  endfacet
  facet normal -0.92388 -0.382683 0
    outer loop
      vertex 0.883883 30.8839 20
      vertex 1.25 30 5
      vertex 1.25 30 20
    endloop
  endfacet
  facet normal 0.382683 -0.92388 0
    outer loop
      vertex -0.883883 30.8839 5
      vertex 0 31.25 20
      vertex -0.883883 30.8839 20
    endloop
  endfacet
  facet normal 0.382683 -0.92388 0
    outer loop
      vertex 0 31.25 20
      vertex -0.883883 30.8839 5
      vertex 0 31.25 5
    endloop
  endfacet
  facet normal -0.382683 -0.92388 0
    outer loop
      vertex 0 31.25 5
      vertex 0.883883 30.8839 20
      vertex 0 31.25 20
    endloop
  endfacet
  facet normal -0.382683 -0.92388 -0
    outer loop
      vertex 0.883883 30.8839 20
      vertex 0 31.25 5
      vertex 0.883883 30.8839 5
    endloop
  endfacet
  facet normal 0.92388 -0.382683 0
    outer loop
      vertex -1.25 30 20
      vertex -0.883883 30.8839 5
      vertex -0.883883 30.8839 20
    endloop
  endfacet
  facet normal 0.92388 -0.382683 0
    outer loop
      vertex -0.883883 30.8839 5
      vertex -1.25 30 20
      vertex -1.25 30 5
    endloop
  endfacet
  facet normal 0 0 1
    outer loop
      vertex 0.883883 30.8839 5
      vertex 0.883883 29.1161 5
      vertex 1.25 30 5
    endloop
  endfacet
  facet normal 0 0 1
    outer loop
      vertex 0 31.25 5
      vertex 0.883883 29.1161 5
      vertex 0.883883 30.8839 5
    endloop
  endfacet
  facet normal 0 0 1
    outer loop
      vertex 0 31.25 5
      vertex 0 28.75 5
      vertex 0.883883 29.1161 5
    endloop
  endfacet
  facet normal -0 0 1
    outer loop
      vertex -0.883883 30.8839 5
      vertex 0 28.75 5
      vertex 0 31.25 5
    endloop
  endfacet
  facet normal 0 0 1
    outer loop
      vertex -0.883883 30.8839 5
      vertex -0.883883 29.1161 5
      vertex 0 28.75 5
    endloop
  endfacet
  facet normal 0 -0 1
    outer loop
      vertex -0.883883 29.1161 5
      vertex -0.883883 30.8839 5
      vertex -1.25 30 5
    endloop
  endfacet
  facet normal -0.92388 0.382683 0
    outer loop
      vertex 0.883883 29.1161 5
      vertex 1.25 30 20
      vertex 1.25 30 5
    endloop
  endfacet
  facet normal -0.92388 0.382683 0
    outer loop
      vertex 1.25 30 20
      vertex 0.883883 29.1161 5
      vertex 0.883883 29.1161 20
    endloop
  endfacet
  facet normal 0.382683 0.92388 -0
    outer loop
      vertex 0 28.75 5
      vertex -0.883883 29.1161 20
      vertex 0 28.75 20
    endloop
  endfacet
  facet normal 0.382683 0.92388 0
    outer loop
      vertex -0.883883 29.1161 20
      vertex 0 28.75 5
      vertex -0.883883 29.1161 5
    endloop
  endfacet
  facet normal 0.92388 0.382683 0
    outer loop
      vertex -0.883883 29.1161 20
      vertex -1.25 30 5
      vertex -1.25 30 20
    endloop
  endfacet
  facet normal 0.92388 0.382683 0
    outer loop
      vertex -1.25 30 5
      vertex -0.883883 29.1161 20
      vertex -0.883883 29.1161 5
    endloop
  endfacet
  facet normal -0.382683 0.92388 0
    outer loop
      vertex 0.883883 29.1161 5
      vertex 0 28.75 20
      vertex 0.883883 29.1161 20
    endloop
  endfacet
  facet normal -0.382683 0.92388 0
    outer loop
      vertex 0 28.75 20
      vertex 0.883883 29.1161 5
      vertex 0 28.75 5
    endloop
  endfacet
  facet normal -0.92388 -0.382683 0
    outer loop
      vertex 1.25 -30 5
      vertex 0.883883 -29.1161 20
      vertex 0.883883 -29.1161 5
    endloop
  endfacet
  facet normal -0.92388 -0.382683 0
    outer loop
      vertex 0.883883 -29.1161 20
      vertex 1.25 -30 5
      vertex 1.25 -30 20
    endloop
  endfacet
  facet normal 0.92388 -0.382683 0
    outer loop
      vertex -1.25 -30 20
      vertex -0.883883 -29.1161 5
      vertex -0.883883 -29.1161 20
    endloop
  endfacet
  facet normal 0.92388 -0.382683 0
    outer loop
      vertex -0.883883 -29.1161 5
      vertex -1.25 -30 20
      vertex -1.25 -30 5
    endloop
  endfacet
  facet normal -0.382683 0.92388 0
    outer loop
      vertex 0.883883 -30.8839 5
      vertex 0 -31.25 20
      vertex 0.883883 -30.8839 20
    endloop
  endfacet
  facet normal -0.382683 0.92388 0
    outer loop
      vertex 0 -31.25 20
      vertex 0.883883 -30.8839 5
      vertex 0 -31.25 5
    endloop
  endfacet
  facet normal 0.382683 -0.92388 0
    outer loop
      vertex -0.883883 -29.1161 5
      vertex 0 -28.75 20
      vertex -0.883883 -29.1161 20
    endloop
  endfacet
  facet normal 0.382683 -0.92388 0
    outer loop
      vertex 0 -28.75 20
      vertex -0.883883 -29.1161 5
      vertex 0 -28.75 5
    endloop
  endfacet
  facet normal -0.382683 -0.92388 0
    outer loop
      vertex 0 -28.75 5
      vertex 0.883883 -29.1161 20
      vertex 0 -28.75 20
    endloop
  endfacet
  facet normal -0.382683 -0.92388 -0
    outer loop
      vertex 0.883883 -29.1161 20
      vertex 0 -28.75 5
      vertex 0.883883 -29.1161 5
    endloop
  endfacet
  facet normal 0 0 1
    outer loop
      vertex 0.883883 -29.1161 5
      vertex 0.883883 -30.8839 5
      vertex 1.25 -30 5
    endloop
  endfacet
  facet normal 0 0 1
    outer loop
      vertex 0 -28.75 5
      vertex 0.883883 -30.8839 5
      vertex 0.883883 -29.1161 5
    endloop
  endfacet
  facet normal 0 0 1
    outer loop
      vertex 0 -28.75 5
      vertex 0 -31.25 5
      vertex 0.883883 -30.8839 5
    endloop
  endfacet
  facet normal -0 0 1
    outer loop
      vertex -0.883883 -29.1161 5
      vertex 0 -31.25 5
      vertex 0 -28.75 5
    endloop
  endfacet
  facet normal 0 0 1
    outer loop
      vertex -0.883883 -29.1161 5
      vertex -0.883883 -30.8839 5
      vertex 0 -31.25 5
    endloop
  endfacet
  facet normal 0 -0 1
    outer loop
      vertex -0.883883 -30.8839 5
      vertex -0.883883 -29.1161 5
      vertex -1.25 -30 5
    endloop
  endfacet
  facet normal -0.92388 0.382683 0
    outer loop
      vertex 0.883883 -30.8839 5
      vertex 1.25 -30 20
      vertex 1.25 -30 5
    endloop
  endfacet
  facet normal -0.92388 0.382683 0
    outer loop
      vertex 1.25 -30 20
      vertex 0.883883 -30.8839 5
      vertex 0.883883 -30.8839 20
    endloop
  endfacet
  facet normal 0.382683 0.92388 -0
    outer loop
      vertex 0 -31.25 5
      vertex -0.883883 -30.8839 20
      vertex 0 -31.25 20
    endloop
  endfacet
  facet normal 0.382683 0.92388 0
    outer loop
      vertex -0.883883 -30.8839 20
      vertex 0 -31.25 5
      vertex -0.883883 -30.8839 5
    endloop
  endfacet
  facet normal 0.92388 0.382683 0
    outer loop
      vertex -0.883883 -30.8839 20
      vertex -1.25 -30 5
      vertex -1.25 -30 20
    endloop
  endfacet
  facet normal 0.92388 0.382683 0
    outer loop
      vertex -1.25 -30 5
      vertex -0.883883 -30.8839 20
      vertex -0.883883 -30.8839 5
    endloop
  endfacet
  facet normal -0.92388 -0.382683 0
    outer loop
      vertex 31.25 0 5
      vertex 30.8839 0.883883 20
      vertex 30.8839 0.883883 5
    endloop
  endfacet
  facet normal -0.92388 -0.382683 0
    outer loop
      vertex 30.8839 0.883883 20
      vertex 31.25 0 5
      vertex 31.25 0 20
    endloop
  endfacet
  facet normal 0.92388 0.382683 0
    outer loop
      vertex 29.1161 -0.883883 20
      vertex 28.75 0 5
      vertex 28.75 0 20
    endloop
  endfacet
  facet normal 0.92388 0.382683 0
    outer loop
      vertex 28.75 0 5
      vertex 29.1161 -0.883883 20
      vertex 29.1161 -0.883883 5
    endloop
  endfacet
  facet normal 0.382683 0.92388 -0
    outer loop
      vertex 30 -1.25 5
      vertex 29.1161 -0.883883 20
      vertex 30 -1.25 20
    endloop
  endfacet
  facet normal 0.382683 0.92388 0
    outer loop
      vertex 29.1161 -0.883883 20
      vertex 30 -1.25 5
      vertex 29.1161 -0.883883 5
    endloop
  endfacet
  facet normal 0.382683 -0.92388 0
    outer loop
      vertex 29.1161 0.883883 5
      vertex 30 1.25 20
      vertex 29.1161 0.883883 20
    endloop
  endfacet
  facet normal 0.382683 -0.92388 0
    outer loop
      vertex 30 1.25 20
      vertex 29.1161 0.883883 5
      vertex 30 1.25 5
    endloop
  endfacet
  facet normal -0.382683 -0.92388 0
    outer loop
      vertex 30 1.25 5
      vertex 30.8839 0.883883 20
      vertex 30 1.25 20
    endloop
  endfacet
  facet normal -0.382683 -0.92388 -0
    outer loop
      vertex 30.8839 0.883883 20
      vertex 30 1.25 5
      vertex 30.8839 0.883883 5
    endloop
  endfacet
  facet normal 0.92388 -0.382683 0
    outer loop
      vertex 28.75 0 20
      vertex 29.1161 0.883883 5
      vertex 29.1161 0.883883 20
    endloop
  endfacet
  facet normal 0.92388 -0.382683 0
    outer loop
      vertex 29.1161 0.883883 5
      vertex 28.75 0 20
      vertex 28.75 0 5
    endloop
  endfacet
  facet normal 0 0 1
    outer loop
      vertex 30.8839 0.883883 5
      vertex 30.8839 -0.883883 5
      vertex 31.25 0 5
    endloop
  endfacet
  facet normal 0 0 1
    outer loop
      vertex 30 1.25 5
      vertex 30.8839 -0.883883 5
      vertex 30.8839 0.883883 5
    endloop
  endfacet
  facet normal 0 0 1
    outer loop
      vertex 30 1.25 5
      vertex 30 -1.25 5
      vertex 30.8839 -0.883883 5
    endloop
  endfacet
  facet normal -0 0 1
    outer loop
      vertex 29.1161 0.883883 5
      vertex 30 -1.25 5
      vertex 30 1.25 5
    endloop
  endfacet
  facet normal 0 0 1
    outer loop
      vertex 29.1161 0.883883 5
      vertex 29.1161 -0.883883 5
      vertex 30 -1.25 5
    endloop
  endfacet
  facet normal 0 -0 1
    outer loop
      vertex 29.1161 -0.883883 5
      vertex 29.1161 0.883883 5
      vertex 28.75 0 5
    endloop
  endfacet
  facet normal -0.92388 0.382683 0
    outer loop
      vertex 30.8839 -0.883883 5
      vertex 31.25 0 20
      vertex 31.25 0 5
    endloop
  endfacet
  facet normal -0.92388 0.382683 0
    outer loop
      vertex 31.25 0 20
      vertex 30.8839 -0.883883 5
      vertex 30.8839 -0.883883 20
    endloop
  endfacet
  facet normal -0.382683 0.92388 0
    outer loop
      vertex 30.8839 -0.883883 5
      vertex 30 -1.25 20
      vertex 30.8839 -0.883883 20
    endloop
  endfacet
  facet normal -0.382683 0.92388 0
    outer loop
      vertex 30 -1.25 20
      vertex 30.8839 -0.883883 5
      vertex 30 -1.25 5
    endloop
  endfacet
  facet normal -0.92388 -0.382683 0
    outer loop
      vertex -28.75 0 5
      vertex -29.1161 0.883883 20
      vertex -29.1161 0.883883 5
    endloop
  endfacet
  facet normal -0.92388 -0.382683 0
    outer loop
      vertex -29.1161 0.883883 20
      vertex -28.75 0 5
      vertex -28.75 0 20
    endloop
  endfacet
  facet normal 0.92388 -0.382683 0
    outer loop
      vertex -31.25 0 20
      vertex -30.8839 0.883883 5
      vertex -30.8839 0.883883 20
    endloop
  endfacet
  facet normal 0.92388 -0.382683 0
    outer loop
      vertex -30.8839 0.883883 5
      vertex -31.25 0 20
      vertex -31.25 0 5
    endloop
  endfacet
  facet normal -0.382683 -0.92388 0
    outer loop
      vertex -30 1.25 5
      vertex -29.1161 0.883883 20
      vertex -30 1.25 20
    endloop
  endfacet
  facet normal -0.382683 -0.92388 -0
    outer loop
      vertex -29.1161 0.883883 20
      vertex -30 1.25 5
      vertex -29.1161 0.883883 5
    endloop
  endfacet
  facet normal -0.382683 0.92388 0
    outer loop
      vertex -29.1161 -0.883883 5
      vertex -30 -1.25 20
      vertex -29.1161 -0.883883 20
    endloop
  endfacet
  facet normal -0.382683 0.92388 0
    outer loop
      vertex -30 -1.25 20
      vertex -29.1161 -0.883883 5
      vertex -30 -1.25 5
    endloop
  endfacet
  facet normal 0.382683 -0.92388 0
    outer loop
      vertex -30.8839 0.883883 5
      vertex -30 1.25 20
      vertex -30.8839 0.883883 20
    endloop
  endfacet
  facet normal 0.382683 -0.92388 0
    outer loop
      vertex -30 1.25 20
      vertex -30.8839 0.883883 5
      vertex -30 1.25 5
    endloop
  endfacet
  facet normal 0 0 1
    outer loop
      vertex -29.1161 0.883883 5
      vertex -29.1161 -0.883883 5
      vertex -28.75 0 5
    endloop
  endfacet
  facet normal 0 0 1
    outer loop
      vertex -30 1.25 5
      vertex -29.1161 -0.883883 5
      vertex -29.1161 0.883883 5
    endloop
  endfacet
  facet normal 0 0 1
    outer loop
      vertex -30 1.25 5
      vertex -30 -1.25 5
      vertex -29.1161 -0.883883 5
    endloop
  endfacet
  facet normal -0 0 1
    outer loop
      vertex -30.8839 0.883883 5
      vertex -30 -1.25 5
      vertex -30 1.25 5
    endloop
  endfacet
  facet normal 0 0 1
    outer loop
      vertex -30.8839 0.883883 5
      vertex -30.8839 -0.883883 5
      vertex -30 -1.25 5
    endloop
  endfacet
  facet normal 0 -0 1
    outer loop
      vertex -30.8839 -0.883883 5
      vertex -30.8839 0.883883 5
      vertex -31.25 0 5
    endloop
  endfacet
  facet normal -0.92388 0.382683 0
    outer loop
      vertex -29.1161 -0.883883 5
      vertex -28.75 0 20
      vertex -28.75 0 5
    endloop
  endfacet
  facet normal -0.92388 0.382683 0
    outer loop
      vertex -28.75 0 20
      vertex -29.1161 -0.883883 5
      vertex -29.1161 -0.883883 20
    endloop
  endfacet
  facet normal 0.382683 0.92388 -0
    outer loop
      vertex -30 -1.25 5
      vertex -30.8839 -0.883883 20
      vertex -30 -1.25 20
    endloop
  endfacet
  facet normal 0.382683 0.92388 0
    outer loop
      vertex -30.8839 -0.883883 20
      vertex -30 -1.25 5
      vertex -30.8839 -0.883883 5
    endloop
  endfacet
  facet normal 0.92388 0.382683 0
    outer loop
      vertex -30.8839 -0.883883 20
      vertex -31.25 0 5
      vertex -31.25 0 20
    endloop
  endfacet
  facet normal 0.92388 0.382683 0
    outer loop
      vertex -31.25 0 5
      vertex -30.8839 -0.883883 20
      vertex -30.8839 -0.883883 5
    endloop
  endfacet
  facet normal -0.382683 -0.92388 0
    outer loop
      vertex 25.5 0.0938286 10.75
      vertex 33.6419 -3.27867 16.25
      vertex 25.5 0.0938286 16.25
    endloop
  endfacet
  facet normal -0.382683 -0.92388 -0
    outer loop
      vertex 33.6419 -3.27867 16.25
      vertex 25.5 0.0938286 10.75
      vertex 33.6419 -3.27867 10.75
    endloop
  endfacet
  facet normal 0 0 -1
    outer loop
      vertex 25.5 -11.2713 16.25
      vertex 33.6419 -3.27867 16.25
      vertex 29.6238 -12.9794 16.25
    endloop
  endfacet
  facet normal -0 0 -1
    outer loop
      vertex 33.6419 -3.27867 16.25
      vertex 25.5 -11.2713 16.25
      vertex 25.5 0.0938286 16.25
    endloop
  endfacet
  facet normal 0.382684 0.923879 -0
    outer loop
      vertex 29.6238 -12.9794 10.75
      vertex 25.5 -11.2713 16.25
      vertex 29.6238 -12.9794 16.25
    endloop
  endfacet
  facet normal 0.382684 0.923879 0
    outer loop
      vertex 25.5 -11.2713 16.25
      vertex 29.6238 -12.9794 10.75
      vertex 25.5 -11.2713 10.75
    endloop
  endfacet
  facet normal 0 0 1
    outer loop
      vertex 25.5 -11.2713 10.75
      vertex 33.6419 -3.27867 10.75
      vertex 25.5 0.0938286 10.75
    endloop
  endfacet
  facet normal 0 0 1
    outer loop
      vertex 33.6419 -3.27867 10.75
      vertex 25.5 -11.2713 10.75
      vertex 29.6238 -12.9794 10.75
    endloop
  endfacet
  facet normal 1 -0 0
    outer loop
      vertex -1.35 6.1 5
      vertex -1.35 8.25 0
      vertex -1.35 8.25 5
    endloop
  endfacet
  facet normal 1 0 0
    outer loop
      vertex -1.35 8.25 0
      vertex -1.35 6.1 5
      vertex -1.35 6.1 0
    endloop
  endfacet
  facet normal 0 0 -1
    outer loop
      vertex -1.35 6.1 5
      vertex 1.35 8.25 5
      vertex 1.35 6.1 5
    endloop
  endfacet
  facet normal -0 0 -1
    outer loop
      vertex 1.35 8.25 5
      vertex -1.35 6.1 5
      vertex -1.35 8.25 5
    endloop
  endfacet
  facet normal -1 0 0
    outer loop
      vertex 1.35 6.1 0
      vertex 1.35 8.25 5
      vertex 1.35 8.25 0
    endloop
  endfacet
  facet normal -1 -0 0
    outer loop
      vertex 1.35 8.25 5
      vertex 1.35 6.1 0
      vertex 1.35 6.1 5
    endloop
  endfacet
  facet normal 0 -1 0
    outer loop
      vertex -1.35 8.25 0
      vertex 1.35 8.25 5
      vertex -1.35 8.25 5
    endloop
  endfacet
  facet normal 0 -1 -0
    outer loop
      vertex 1.35 8.25 5
      vertex -1.35 8.25 0
      vertex 1.35 8.25 0
    endloop
  endfacet
  facet normal 0 1 -0
    outer loop
      vertex 1.35 6.1 0
      vertex -1.35 6.1 5
      vertex 1.35 6.1 5
    endloop
  endfacet
  facet normal 0 1 0
    outer loop
      vertex -1.35 6.1 5
      vertex 1.35 6.1 0
      vertex -1.35 6.1 0
    endloop
  endfacet
  facet normal 1 -0 0
    outer loop
      vertex -1.35 -8.25 5
      vertex -1.35 -6.1 0
      vertex -1.35 -6.1 5
    endloop
  endfacet
  facet normal 1 0 0
    outer loop
      vertex -1.35 -6.1 0
      vertex -1.35 -8.25 5
      vertex -1.35 -8.25 0
    endloop
  endfacet
  facet normal 0 0 -1
    outer loop
      vertex -1.35 -8.25 5
      vertex 1.35 -6.1 5
      vertex 1.35 -8.25 5
    endloop
  endfacet
  facet normal -0 0 -1
    outer loop
      vertex 1.35 -6.1 5
      vertex -1.35 -8.25 5
      vertex -1.35 -6.1 5
    endloop
  endfacet
  facet normal -1 0 0
    outer loop
      vertex 1.35 -8.25 0
      vertex 1.35 -6.1 5
      vertex 1.35 -6.1 0
    endloop
  endfacet
  facet normal -1 -0 0
    outer loop
      vertex 1.35 -6.1 5
      vertex 1.35 -8.25 0
      vertex 1.35 -8.25 5
    endloop
  endfacet
  facet normal 0 -1 0
    outer loop
      vertex -1.35 -6.1 0
      vertex 1.35 -6.1 5
      vertex -1.35 -6.1 5
    endloop
  endfacet
  facet normal 0 -1 -0
    outer loop
      vertex 1.35 -6.1 5
      vertex -1.35 -6.1 0
      vertex 1.35 -6.1 0
    endloop
  endfacet
  facet normal 0 1 -0
    outer loop
      vertex 1.35 -8.25 0
      vertex -1.35 -8.25 5
      vertex 1.35 -8.25 5
    endloop
  endfacet
  facet normal 0 1 0
    outer loop
      vertex -1.35 -8.25 5
      vertex 1.35 -8.25 0
      vertex -1.35 -8.25 0
    endloop
  endfacet
endsolid OpenSCAD_Model
