solid OpenSCAD_Model
  facet normal 0.290285 0.95694 -0
    outer loop
      vertex 22.9715 31.9869 0
      vertex 22.4463 32.1462 1
      vertex 22.9715 31.9869 1
    endloop
  endfacet
  facet normal 0.290285 0.95694 0
    outer loop
      vertex 22.4463 32.1462 1
      vertex 22.9715 31.9869 0
      vertex 22.4463 32.1462 0
    endloop
  endfacet
  facet normal 0.0980125 0.995185 -0
    outer loop
      vertex 22.4463 32.1462 0
      vertex 21.9 32.2 1
      vertex 22.4463 32.1462 1
    endloop
  endfacet
  facet normal 0.0980125 0.995185 0
    outer loop
      vertex 21.9 32.2 1
      vertex 22.4463 32.1462 0
      vertex 21.9 32.2 0
    endloop
  endfacet
  facet normal -0.0980127 0.995185 0
    outer loop
      vertex 2.8 32.2 0
      vertex 2.25375 32.1462 1
      vertex 2.8 32.2 1
    endloop
  endfacet
  facet normal -0.0980127 0.995185 0
    outer loop
      vertex 2.25375 32.1462 1
      vertex 2.8 32.2 0
      vertex 2.25375 32.1462 0
    endloop
  endfacet
  facet normal 0 1 -0
    outer loop
      vertex 21.9 32.2 0
      vertex 2.8 32.2 1
      vertex 21.9 32.2 1
    endloop
  endfacet
  facet normal 0 1 0
    outer loop
      vertex 2.8 32.2 1
      vertex 21.9 32.2 0
      vertex 2.8 32.2 0
    endloop
  endfacet
  facet normal -0.773011 0.634393 0
    outer loop
      vertex 0.471885 30.9556 0
      vertex 0.820101 31.3799 1
      vertex 0.820101 31.3799 0
    endloop
  endfacet
  facet normal -0.773011 0.634393 0
    outer loop
      vertex 0.820101 31.3799 1
      vertex 0.471885 30.9556 0
      vertex 0.471885 30.9556 1
    endloop
  endfacet
  facet normal -0.77301 -0.634394 0
    outer loop
      vertex 0.820101 0.820101 0
      vertex 0.471885 1.2444 1
      vertex 0.471885 1.2444 0
    endloop
  endfacet
  facet normal -0.77301 -0.634394 0
    outer loop
      vertex 0.471885 1.2444 1
      vertex 0.820101 0.820101 0
      vertex 0.820101 0.820101 1
    endloop
  endfacet
  facet normal 1 -0 0
    outer loop
      vertex 24.7 2.8 1
      vertex 24.7 29.4 0
      vertex 24.7 29.4 1
    endloop
  endfacet
  facet normal 1 0 0
    outer loop
      vertex 24.7 29.4 0
      vertex 24.7 2.8 1
      vertex 24.7 2.8 0
    endloop
  endfacet
  facet normal 0.88192 0.471398 0
    outer loop
      vertex 24.4869 30.4715 1
      vertex 24.2281 30.9556 0
      vertex 24.2281 30.9556 1
    endloop
  endfacet
  facet normal 0.88192 0.471398 0
    outer loop
      vertex 24.2281 30.9556 0
      vertex 24.4869 30.4715 1
      vertex 24.4869 30.4715 0
    endloop
  endfacet
  facet normal -0.290285 0.95694 0
    outer loop
      vertex 2.25375 32.1462 0
      vertex 1.72849 31.9869 1
      vertex 2.25375 32.1462 1
    endloop
  endfacet
  facet normal -0.290285 0.95694 0
    outer loop
      vertex 1.72849 31.9869 1
      vertex 2.25375 32.1462 0
      vertex 1.72849 31.9869 0
    endloop
  endfacet
  facet normal -0.634393 0.773011 0
    outer loop
      vertex 1.2444 31.7281 0
      vertex 0.820101 31.3799 1
      vertex 1.2444 31.7281 1
    endloop
  endfacet
  facet normal -0.634393 0.773011 0
    outer loop
      vertex 0.820101 31.3799 1
      vertex 1.2444 31.7281 0
      vertex 0.820101 31.3799 0
    endloop
  endfacet
  facet normal -0.95694 0.290285 0
    outer loop
      vertex 0.0538006 29.9463 0
      vertex 0.213137 30.4715 1
      vertex 0.213137 30.4715 0
    endloop
  endfacet
  facet normal -0.95694 0.290285 0
    outer loop
      vertex 0.213137 30.4715 1
      vertex 0.0538006 29.9463 0
      vertex 0.0538006 29.9463 1
    endloop
  endfacet
  facet normal -0.881921 0.471397 0
    outer loop
      vertex 0.213137 30.4715 0
      vertex 0.471885 30.9556 1
      vertex 0.471885 30.9556 0
    endloop
  endfacet
  facet normal -0.881921 0.471397 0
    outer loop
      vertex 0.471885 30.9556 1
      vertex 0.213137 30.4715 0
      vertex 0.213137 30.4715 1
    endloop
  endfacet
  facet normal 0.634392 0.773012 -0
    outer loop
      vertex 23.8799 31.3799 0
      vertex 23.4556 31.7281 1
      vertex 23.8799 31.3799 1
    endloop
  endfacet
  facet normal 0.634392 0.773012 0
    outer loop
      vertex 23.4556 31.7281 1
      vertex 23.8799 31.3799 0
      vertex 23.4556 31.7281 0
    endloop
  endfacet
  facet normal 0.773011 -0.634393 0
    outer loop
      vertex 23.8799 0.820101 1
      vertex 24.2281 1.2444 0
      vertex 24.2281 1.2444 1
    endloop
  endfacet
  facet normal 0.773011 -0.634393 0
    outer loop
      vertex 24.2281 1.2444 0
      vertex 23.8799 0.820101 1
      vertex 23.8799 0.820101 0
    endloop
  endfacet
  facet normal -0.95694 -0.290285 0
    outer loop
      vertex 0.213137 1.72849 0
      vertex 0.0538006 2.25375 1
      vertex 0.0538006 2.25375 0
    endloop
  endfacet
  facet normal -0.95694 -0.290285 0
    outer loop
      vertex 0.0538006 2.25375 1
      vertex 0.213137 1.72849 0
      vertex 0.213137 1.72849 1
    endloop
  endfacet
  facet normal -1 0 0
    outer loop
      vertex 0 2.8 0
      vertex 0 29.4 1
      vertex 0 29.4 0
    endloop
  endfacet
  facet normal -1 -0 0
    outer loop
      vertex 0 29.4 1
      vertex 0 2.8 0
      vertex 0 2.8 1
    endloop
  endfacet
  facet normal -0.995185 0.0980159 0
    outer loop
      vertex 0 29.4 0
      vertex 0.0538006 29.9463 1
      vertex 0.0538006 29.9463 0
    endloop
  endfacet
  facet normal -0.995185 0.0980159 0
    outer loop
      vertex 0.0538006 29.9463 1
      vertex 0 29.4 0
      vertex 0 29.4 1
    endloop
  endfacet
  facet normal -0.471398 0.88192 0
    outer loop
      vertex 1.72849 31.9869 0
      vertex 1.2444 31.7281 1
      vertex 1.72849 31.9869 1
    endloop
  endfacet
  facet normal -0.471398 0.88192 0
    outer loop
      vertex 1.2444 31.7281 1
      vertex 1.72849 31.9869 0
      vertex 1.2444 31.7281 0
    endloop
  endfacet
  facet normal 0.471398 0.88192 -0
    outer loop
      vertex 23.4556 31.7281 0
      vertex 22.9715 31.9869 1
      vertex 23.4556 31.7281 1
    endloop
  endfacet
  facet normal 0.471398 0.88192 0
    outer loop
      vertex 22.9715 31.9869 1
      vertex 23.4556 31.7281 0
      vertex 22.9715 31.9869 0
    endloop
  endfacet
  facet normal 0.995185 0.0980125 0
    outer loop
      vertex 24.7 29.4 1
      vertex 24.6462 29.9463 0
      vertex 24.6462 29.9463 1
    endloop
  endfacet
  facet normal 0.995185 0.0980125 0
    outer loop
      vertex 24.6462 29.9463 0
      vertex 24.7 29.4 1
      vertex 24.7 29.4 0
    endloop
  endfacet
  facet normal 0 -1 0
    outer loop
      vertex 2.8 0 0
      vertex 21.9 0 1
      vertex 2.8 0 1
    endloop
  endfacet
  facet normal 0 -1 -0
    outer loop
      vertex 21.9 0 1
      vertex 2.8 0 0
      vertex 21.9 0 0
    endloop
  endfacet
  facet normal 0.95694 -0.290285 0
    outer loop
      vertex 24.4869 1.72849 1
      vertex 24.6462 2.25375 0
      vertex 24.6462 2.25375 1
    endloop
  endfacet
  facet normal 0.95694 -0.290285 0
    outer loop
      vertex 24.6462 2.25375 0
      vertex 24.4869 1.72849 1
      vertex 24.4869 1.72849 0
    endloop
  endfacet
  facet normal 0.634393 -0.773011 0
    outer loop
      vertex 23.4556 0.471885 0
      vertex 23.8799 0.820101 1
      vertex 23.4556 0.471885 1
    endloop
  endfacet
  facet normal 0.634393 -0.773011 0
    outer loop
      vertex 23.8799 0.820101 1
      vertex 23.4556 0.471885 0
      vertex 23.8799 0.820101 0
    endloop
  endfacet
  facet normal 0.471397 -0.881921 0
    outer loop
      vertex 22.9715 0.213137 0
      vertex 23.4556 0.471885 1
      vertex 22.9715 0.213137 1
    endloop
  endfacet
  facet normal 0.471397 -0.881921 0
    outer loop
      vertex 23.4556 0.471885 1
      vertex 22.9715 0.213137 0
      vertex 23.4556 0.471885 0
    endloop
  endfacet
  facet normal 0.0980159 -0.995185 0
    outer loop
      vertex 21.9 0 0
      vertex 22.4463 0.0538006 1
      vertex 21.9 0 1
    endloop
  endfacet
  facet normal 0.0980159 -0.995185 0
    outer loop
      vertex 22.4463 0.0538006 1
      vertex 21.9 0 0
      vertex 22.4463 0.0538006 0
    endloop
  endfacet
  facet normal -0.995185 -0.0980161 0
    outer loop
      vertex 0.0538006 2.25375 0
      vertex 0 2.8 1
      vertex 0 2.8 0
    endloop
  endfacet
  facet normal -0.995185 -0.0980161 0
    outer loop
      vertex 0 2.8 1
      vertex 0.0538006 2.25375 0
      vertex 0.0538006 2.25375 1
    endloop
  endfacet
  facet normal 0 0 1
    outer loop
      vertex 22.9 29.4 1
      vertex 24.7 29.4 1
      vertex 24.6462 29.9463 1
    endloop
  endfacet
  facet normal 0 0 1
    outer loop
      vertex 24.7 29.4 1
      vertex 22.9 29.4 1
      vertex 24.7 2.8 1
    endloop
  endfacet
  facet normal 0 0 1
    outer loop
      vertex 22.8808 29.5951 1
      vertex 24.6462 29.9463 1
      vertex 24.4869 30.4715 1
    endloop
  endfacet
  facet normal 0 0 1
    outer loop
      vertex 22.9 2.8 1
      vertex 24.7 2.8 1
      vertex 22.9 29.4 1
    endloop
  endfacet
  facet normal 0 0 1
    outer loop
      vertex 22.8239 29.7827 1
      vertex 24.4869 30.4715 1
      vertex 24.2281 30.9556 1
    endloop
  endfacet
  facet normal 0 0 1
    outer loop
      vertex 24.7 2.8 1
      vertex 22.9 2.8 1
      vertex 24.6462 2.25375 1
    endloop
  endfacet
  facet normal 0 0 1
    outer loop
      vertex 22.7315 29.9556 1
      vertex 24.2281 30.9556 1
      vertex 23.8799 31.3799 1
    endloop
  endfacet
  facet normal -0 0 1
    outer loop
      vertex 22.8808 2.60491 1
      vertex 24.6462 2.25375 1
      vertex 22.9 2.8 1
    endloop
  endfacet
  facet normal 0 0 1
    outer loop
      vertex 22.6071 30.1071 1
      vertex 23.8799 31.3799 1
      vertex 23.4556 31.7281 1
    endloop
  endfacet
  facet normal 0 0 1
    outer loop
      vertex 24.6462 2.25375 1
      vertex 22.8808 2.60491 1
      vertex 24.4869 1.72849 1
    endloop
  endfacet
  facet normal 0 0 1
    outer loop
      vertex 22.4556 30.2315 1
      vertex 23.4556 31.7281 1
      vertex 22.9715 31.9869 1
    endloop
  endfacet
  facet normal -0 0 1
    outer loop
      vertex 22.8239 2.41732 1
      vertex 24.4869 1.72849 1
      vertex 22.8808 2.60491 1
    endloop
  endfacet
  facet normal 0 0 1
    outer loop
      vertex 24.4869 1.72849 1
      vertex 22.8239 2.41732 1
      vertex 24.2281 1.2444 1
    endloop
  endfacet
  facet normal 0 0 1
    outer loop
      vertex 24.6462 29.9463 1
      vertex 22.8808 29.5951 1
      vertex 22.9 29.4 1
    endloop
  endfacet
  facet normal 0 0 1
    outer loop
      vertex 24.4869 30.4715 1
      vertex 22.8239 29.7827 1
      vertex 22.8808 29.5951 1
    endloop
  endfacet
  facet normal 0 0 1
    outer loop
      vertex 24.2281 30.9556 1
      vertex 22.7315 29.9556 1
      vertex 22.8239 29.7827 1
    endloop
  endfacet
  facet normal 0 0 1
    outer loop
      vertex 23.8799 31.3799 1
      vertex 22.6071 30.1071 1
      vertex 22.7315 29.9556 1
    endloop
  endfacet
  facet normal 0 0 1
    outer loop
      vertex 23.4556 31.7281 1
      vertex 22.4556 30.2315 1
      vertex 22.6071 30.1071 1
    endloop
  endfacet
  facet normal 0 0 1
    outer loop
      vertex 22.2827 30.3239 1
      vertex 22.9715 31.9869 1
      vertex 22.4463 32.1462 1
    endloop
  endfacet
  facet normal 0 0 1
    outer loop
      vertex 22.9715 31.9869 1
      vertex 22.2827 30.3239 1
      vertex 22.4556 30.2315 1
    endloop
  endfacet
  facet normal 0 0 1
    outer loop
      vertex 22.4463 32.1462 1
      vertex 22.0951 30.3808 1
      vertex 22.2827 30.3239 1
    endloop
  endfacet
  facet normal 0 0 1
    outer loop
      vertex 21.9 32.2 1
      vertex 22.0951 30.3808 1
      vertex 22.4463 32.1462 1
    endloop
  endfacet
  facet normal 0 0 1
    outer loop
      vertex 21.9 32.2 1
      vertex 21.9 30.4 1
      vertex 22.0951 30.3808 1
    endloop
  endfacet
  facet normal -0 0 1
    outer loop
      vertex 2.8 32.2 1
      vertex 21.9 30.4 1
      vertex 21.9 32.2 1
    endloop
  endfacet
  facet normal 0 0 1
    outer loop
      vertex 2.8 32.2 1
      vertex 2.8 30.4 1
      vertex 21.9 30.4 1
    endloop
  endfacet
  facet normal 0 0 1
    outer loop
      vertex 2.8 32.2 1
      vertex 2.60491 30.3808 1
      vertex 2.8 30.4 1
    endloop
  endfacet
  facet normal -0 0 1
    outer loop
      vertex 2.25375 32.1462 1
      vertex 2.60491 30.3808 1
      vertex 2.8 32.2 1
    endloop
  endfacet
  facet normal 0 0 1
    outer loop
      vertex 2.60491 30.3808 1
      vertex 2.25375 32.1462 1
      vertex 2.41732 30.3239 1
    endloop
  endfacet
  facet normal -0 0 1
    outer loop
      vertex 1.72849 31.9869 1
      vertex 2.41732 30.3239 1
      vertex 2.25375 32.1462 1
    endloop
  endfacet
  facet normal 0 0 1
    outer loop
      vertex 2.41732 30.3239 1
      vertex 1.72849 31.9869 1
      vertex 2.24443 30.2315 1
    endloop
  endfacet
  facet normal -0 0 1
    outer loop
      vertex 1.2444 31.7281 1
      vertex 2.24443 30.2315 1
      vertex 1.72849 31.9869 1
    endloop
  endfacet
  facet normal 0 0 1
    outer loop
      vertex 2.24443 30.2315 1
      vertex 1.2444 31.7281 1
      vertex 2.09289 30.1071 1
    endloop
  endfacet
  facet normal -0 0 1
    outer loop
      vertex 0.820101 31.3799 1
      vertex 2.09289 30.1071 1
      vertex 1.2444 31.7281 1
    endloop
  endfacet
  facet normal 0 0 1
    outer loop
      vertex 1.96853 29.9556 1
      vertex 0.471885 30.9556 1
      vertex 1.87612 29.7827 1
    endloop
  endfacet
  facet normal -0 0 1
    outer loop
      vertex 0.471885 30.9556 1
      vertex 1.96853 29.9556 1
      vertex 0.820101 31.3799 1
    endloop
  endfacet
  facet normal 0 0 1
    outer loop
      vertex 2.09289 30.1071 1
      vertex 0.820101 31.3799 1
      vertex 1.96853 29.9556 1
    endloop
  endfacet
  facet normal -0 0 1
    outer loop
      vertex 22.7315 2.24443 1
      vertex 24.2281 1.2444 1
      vertex 22.8239 2.41732 1
    endloop
  endfacet
  facet normal 0 0 1
    outer loop
      vertex 24.2281 1.2444 1
      vertex 22.7315 2.24443 1
      vertex 23.8799 0.820101 1
    endloop
  endfacet
  facet normal -0 0 1
    outer loop
      vertex 22.6071 2.09289 1
      vertex 23.8799 0.820101 1
      vertex 22.7315 2.24443 1
    endloop
  endfacet
  facet normal 0 0 1
    outer loop
      vertex 23.8799 0.820101 1
      vertex 22.6071 2.09289 1
      vertex 23.4556 0.471885 1
    endloop
  endfacet
  facet normal -0 0 1
    outer loop
      vertex 22.4556 1.96853 1
      vertex 23.4556 0.471885 1
      vertex 22.6071 2.09289 1
    endloop
  endfacet
  facet normal 0 0 1
    outer loop
      vertex 23.4556 0.471885 1
      vertex 22.4556 1.96853 1
      vertex 22.9715 0.213137 1
    endloop
  endfacet
  facet normal -0 0 1
    outer loop
      vertex 22.2827 1.87612 1
      vertex 22.9715 0.213137 1
      vertex 22.4556 1.96853 1
    endloop
  endfacet
  facet normal 0 0 1
    outer loop
      vertex 22.9715 0.213137 1
      vertex 22.2827 1.87612 1
      vertex 22.4463 0.0538006 1
    endloop
  endfacet
  facet normal -0 0 1
    outer loop
      vertex 22.0951 1.81921 1
      vertex 22.4463 0.0538006 1
      vertex 22.2827 1.87612 1
    endloop
  endfacet
  facet normal -0 0 1
    outer loop
      vertex 21.9 1.8 1
      vertex 22.4463 0.0538006 1
      vertex 22.0951 1.81921 1
    endloop
  endfacet
  facet normal 0 0 1
    outer loop
      vertex 21.9 1.8 1
      vertex 21.9 0 1
      vertex 22.4463 0.0538006 1
    endloop
  endfacet
  facet normal -0 0 1
    outer loop
      vertex 2.8 1.8 1
      vertex 21.9 0 1
      vertex 21.9 1.8 1
    endloop
  endfacet
  facet normal 0 0 1
    outer loop
      vertex 2.8 1.8 1
      vertex 2.8 0 1
      vertex 21.9 0 1
    endloop
  endfacet
  facet normal 0 0 1
    outer loop
      vertex 2.60491 1.81921 1
      vertex 2.8 0 1
      vertex 2.8 1.8 1
    endloop
  endfacet
  facet normal 0 0 1
    outer loop
      vertex 2.25375 0.0538006 1
      vertex 2.60491 1.81921 1
      vertex 2.41732 1.87612 1
    endloop
  endfacet
  facet normal 0 0 1
    outer loop
      vertex 2.60491 1.81921 1
      vertex 2.25375 0.0538006 1
      vertex 2.8 0 1
    endloop
  endfacet
  facet normal 0 0 1
    outer loop
      vertex 1.72849 0.213137 1
      vertex 2.41732 1.87612 1
      vertex 2.24443 1.96853 1
    endloop
  endfacet
  facet normal 0 0 1
    outer loop
      vertex 1.2444 0.471885 1
      vertex 2.24443 1.96853 1
      vertex 2.09289 2.09289 1
    endloop
  endfacet
  facet normal 0 0 1
    outer loop
      vertex 0.820101 0.820101 1
      vertex 2.09289 2.09289 1
      vertex 1.96853 2.24443 1
    endloop
  endfacet
  facet normal 0 0 1
    outer loop
      vertex 0.471885 1.2444 1
      vertex 1.96853 2.24443 1
      vertex 1.87612 2.41732 1
    endloop
  endfacet
  facet normal 0 0 1
    outer loop
      vertex 0.213137 1.72849 1
      vertex 1.87612 2.41732 1
      vertex 1.81921 2.60491 1
    endloop
  endfacet
  facet normal 0 0 1
    outer loop
      vertex 2.41732 1.87612 1
      vertex 1.72849 0.213137 1
      vertex 2.25375 0.0538006 1
    endloop
  endfacet
  facet normal 0 0 1
    outer loop
      vertex 0.0538006 2.25375 1
      vertex 1.81921 2.60491 1
      vertex 1.8 2.8 1
    endloop
  endfacet
  facet normal 0 0 1
    outer loop
      vertex 1.8 29.4 1
      vertex 0 29.4 1
      vertex 1.8 2.8 1
    endloop
  endfacet
  facet normal -0 0 1
    outer loop
      vertex 0.213137 30.4715 1
      vertex 1.87612 29.7827 1
      vertex 0.471885 30.9556 1
    endloop
  endfacet
  facet normal 0 0 1
    outer loop
      vertex 0 2.8 1
      vertex 1.8 2.8 1
      vertex 0 29.4 1
    endloop
  endfacet
  facet normal 0 0 1
    outer loop
      vertex 1.87612 29.7827 1
      vertex 0.213137 30.4715 1
      vertex 1.81921 29.5951 1
    endloop
  endfacet
  facet normal 0 -0 1
    outer loop
      vertex 0.0538006 2.25375 1
      vertex 1.8 2.8 1
      vertex 0 2.8 1
    endloop
  endfacet
  facet normal -0 0 1
    outer loop
      vertex 0.0538006 29.9463 1
      vertex 1.81921 29.5951 1
      vertex 0.213137 30.4715 1
    endloop
  endfacet
  facet normal 0 0 1
    outer loop
      vertex 2.24443 1.96853 1
      vertex 1.2444 0.471885 1
      vertex 1.72849 0.213137 1
    endloop
  endfacet
  facet normal 0 0 1
    outer loop
      vertex 1.81921 29.5951 1
      vertex 0.0538006 29.9463 1
      vertex 1.8 29.4 1
    endloop
  endfacet
  facet normal 0 0 1
    outer loop
      vertex 2.09289 2.09289 1
      vertex 0.820101 0.820101 1
      vertex 1.2444 0.471885 1
    endloop
  endfacet
  facet normal 0 0 1
    outer loop
      vertex 1.8 29.4 1
      vertex 0.0538006 29.9463 1
      vertex 0 29.4 1
    endloop
  endfacet
  facet normal 0 0 1
    outer loop
      vertex 1.96853 2.24443 1
      vertex 0.471885 1.2444 1
      vertex 0.820101 0.820101 1
    endloop
  endfacet
  facet normal 0 0 1
    outer loop
      vertex 1.87612 2.41732 1
      vertex 0.213137 1.72849 1
      vertex 0.471885 1.2444 1
    endloop
  endfacet
  facet normal 0 0 1
    outer loop
      vertex 1.81921 2.60491 1
      vertex 0.0538006 2.25375 1
      vertex 0.213137 1.72849 1
    endloop
  endfacet
  facet normal 0 0 -1
    outer loop
      vertex 21.9 0 0
      vertex 24.7 2.8 0
      vertex 24.6462 2.25375 0
    endloop
  endfacet
  facet normal 0 0 -1
    outer loop
      vertex 24.7 2.8 0
      vertex 19.1 4.1 0
      vertex 24.7 29.4 0
    endloop
  endfacet
  facet normal 0 0 -1
    outer loop
      vertex 21.9 0 0
      vertex 24.6462 2.25375 0
      vertex 24.4869 1.72849 0
    endloop
  endfacet
  facet normal 0 0 -1
    outer loop
      vertex 19.1 28.1 0
      vertex 24.7 29.4 0
      vertex 19.1 4.1 0
    endloop
  endfacet
  facet normal 0 0 -1
    outer loop
      vertex 21.9 0 0
      vertex 24.4869 1.72849 0
      vertex 24.2281 1.2444 0
    endloop
  endfacet
  facet normal 0 0 -1
    outer loop
      vertex 19.0808 28.2951 0
      vertex 24.7 29.4 0
      vertex 19.1 28.1 0
    endloop
  endfacet
  facet normal 0 0 -1
    outer loop
      vertex 21.9 0 0
      vertex 24.2281 1.2444 0
      vertex 23.8799 0.820101 0
    endloop
  endfacet
  facet normal 0 0 -1
    outer loop
      vertex 19.0239 28.4827 0
      vertex 24.7 29.4 0
      vertex 19.0808 28.2951 0
    endloop
  endfacet
  facet normal 0 0 -1
    outer loop
      vertex 21.9 0 0
      vertex 23.8799 0.820101 0
      vertex 23.4556 0.471885 0
    endloop
  endfacet
  facet normal 0 -0 -1
    outer loop
      vertex 21.9 32.2 0
      vertex 24.7 29.4 0
      vertex 19.0239 28.4827 0
    endloop
  endfacet
  facet normal 0 0 -1
    outer loop
      vertex 21.9 0 0
      vertex 23.4556 0.471885 0
      vertex 22.9715 0.213137 0
    endloop
  endfacet
  facet normal 0 0 -1
    outer loop
      vertex 24.7 29.4 0
      vertex 21.9 32.2 0
      vertex 24.6462 29.9463 0
    endloop
  endfacet
  facet normal 0 0 -1
    outer loop
      vertex 21.9 0 0
      vertex 22.9715 0.213137 0
      vertex 22.4463 0.0538006 0
    endloop
  endfacet
  facet normal 0 0 -1
    outer loop
      vertex 24.6462 29.9463 0
      vertex 21.9 32.2 0
      vertex 24.4869 30.4715 0
    endloop
  endfacet
  facet normal -0 0 -1
    outer loop
      vertex 24.7 2.8 0
      vertex 21.9 0 0
      vertex 19.0239 3.71732 0
    endloop
  endfacet
  facet normal 0 0 -1
    outer loop
      vertex 24.4869 30.4715 0
      vertex 21.9 32.2 0
      vertex 24.2281 30.9556 0
    endloop
  endfacet
  facet normal 0 0 -1
    outer loop
      vertex 23.8799 31.3799 0
      vertex 21.9 32.2 0
      vertex 23.4556 31.7281 0
    endloop
  endfacet
  facet normal 0 0 -1
    outer loop
      vertex 24.7 2.8 0
      vertex 19.0808 3.90491 0
      vertex 19.1 4.1 0
    endloop
  endfacet
  facet normal 0 0 -1
    outer loop
      vertex 24.7 2.8 0
      vertex 19.0239 3.71732 0
      vertex 19.0808 3.90491 0
    endloop
  endfacet
  facet normal 0 0 -1
    outer loop
      vertex 21.9 0 0
      vertex 18.9315 3.54443 0
      vertex 19.0239 3.71732 0
    endloop
  endfacet
  facet normal 0 0 -1
    outer loop
      vertex 21.9 0 0
      vertex 18.8071 3.39289 0
      vertex 18.9315 3.54443 0
    endloop
  endfacet
  facet normal 0 0 -1
    outer loop
      vertex 21.9 0 0
      vertex 18.6556 3.26853 0
      vertex 18.8071 3.39289 0
    endloop
  endfacet
  facet normal 0 0 -1
    outer loop
      vertex 21.9 0 0
      vertex 18.4827 3.17612 0
      vertex 18.6556 3.26853 0
    endloop
  endfacet
  facet normal 0 0 -1
    outer loop
      vertex 21.9 0 0
      vertex 18.2951 3.11922 0
      vertex 18.4827 3.17612 0
    endloop
  endfacet
  facet normal 0 0 -1
    outer loop
      vertex 21.9 0 0
      vertex 18.1 3.1 0
      vertex 18.2951 3.11922 0
    endloop
  endfacet
  facet normal 0 0 -1
    outer loop
      vertex 2.8 0 0
      vertex 18.1 3.1 0
      vertex 21.9 0 0
    endloop
  endfacet
  facet normal -0 0 -1
    outer loop
      vertex 18.1 3.1 0
      vertex 2.8 0 0
      vertex 4.1 3.1 0
    endloop
  endfacet
  facet normal 0 0 -1
    outer loop
      vertex 0.471885 1.2444 0
      vertex 3.39289 3.39289 0
      vertex 0.820101 0.820101 0
    endloop
  endfacet
  facet normal 0 0 -1
    outer loop
      vertex 0.820101 0.820101 0
      vertex 3.39289 3.39289 0
      vertex 1.2444 0.471885 0
    endloop
  endfacet
  facet normal 0 0 -1
    outer loop
      vertex 1.2444 0.471885 0
      vertex 3.39289 3.39289 0
      vertex 1.72849 0.213137 0
    endloop
  endfacet
  facet normal -0 0 -1
    outer loop
      vertex 3.54443 3.26853 0
      vertex 1.72849 0.213137 0
      vertex 3.39289 3.39289 0
    endloop
  endfacet
  facet normal 0 0 -1
    outer loop
      vertex 1.72849 0.213137 0
      vertex 3.54443 3.26853 0
      vertex 2.25375 0.0538006 0
    endloop
  endfacet
  facet normal 0 0 -1
    outer loop
      vertex 2.25375 0.0538006 0
      vertex 3.54443 3.26853 0
      vertex 2.8 0 0
    endloop
  endfacet
  facet normal -0 0 -1
    outer loop
      vertex 3.71732 3.17612 0
      vertex 2.8 0 0
      vertex 3.54443 3.26853 0
    endloop
  endfacet
  facet normal -0 0 -1
    outer loop
      vertex 3.90491 3.11922 0
      vertex 2.8 0 0
      vertex 3.71732 3.17612 0
    endloop
  endfacet
  facet normal -0 0 -1
    outer loop
      vertex 4.1 3.1 0
      vertex 2.8 0 0
      vertex 3.90491 3.11922 0
    endloop
  endfacet
  facet normal 0 0 -1
    outer loop
      vertex 23.4556 31.7281 0
      vertex 21.9 32.2 0
      vertex 22.9715 31.9869 0
    endloop
  endfacet
  facet normal 0 0 -1
    outer loop
      vertex 22.9715 31.9869 0
      vertex 21.9 32.2 0
      vertex 22.4463 32.1462 0
    endloop
  endfacet
  facet normal 0 0 -1
    outer loop
      vertex 24.2281 30.9556 0
      vertex 21.9 32.2 0
      vertex 23.8799 31.3799 0
    endloop
  endfacet
  facet normal 0 0 -1
    outer loop
      vertex 18.9315 28.6556 0
      vertex 21.9 32.2 0
      vertex 19.0239 28.4827 0
    endloop
  endfacet
  facet normal 0 0 -1
    outer loop
      vertex 18.8071 28.8071 0
      vertex 21.9 32.2 0
      vertex 18.9315 28.6556 0
    endloop
  endfacet
  facet normal 0 0 -1
    outer loop
      vertex 18.6556 28.9315 0
      vertex 21.9 32.2 0
      vertex 18.8071 28.8071 0
    endloop
  endfacet
  facet normal 0 0 -1
    outer loop
      vertex 18.4827 29.0239 0
      vertex 21.9 32.2 0
      vertex 18.6556 28.9315 0
    endloop
  endfacet
  facet normal 0 0 -1
    outer loop
      vertex 18.2951 29.0808 0
      vertex 21.9 32.2 0
      vertex 18.4827 29.0239 0
    endloop
  endfacet
  facet normal 0 0 -1
    outer loop
      vertex 18.1 29.1 0
      vertex 21.9 32.2 0
      vertex 18.2951 29.0808 0
    endloop
  endfacet
  facet normal 0 0 -1
    outer loop
      vertex 2.8 32.2 0
      vertex 18.1 29.1 0
      vertex 4.1 29.1 0
    endloop
  endfacet
  facet normal 0 0 -1
    outer loop
      vertex 2.8 32.2 0
      vertex 4.1 29.1 0
      vertex 3.90491 29.0808 0
    endloop
  endfacet
  facet normal 0 0 -1
    outer loop
      vertex 18.1 29.1 0
      vertex 2.8 32.2 0
      vertex 21.9 32.2 0
    endloop
  endfacet
  facet normal 0 0 -1
    outer loop
      vertex 3.71732 29.0239 0
      vertex 2.8 32.2 0
      vertex 3.90491 29.0808 0
    endloop
  endfacet
  facet normal 0 0 -1
    outer loop
      vertex 3.54443 28.9315 0
      vertex 2.8 32.2 0
      vertex 3.71732 29.0239 0
    endloop
  endfacet
  facet normal 0 0 -1
    outer loop
      vertex 1.72849 31.9869 0
      vertex 3.54443 28.9315 0
      vertex 3.39289 28.8071 0
    endloop
  endfacet
  facet normal 0 0 -1
    outer loop
      vertex 0.471885 30.9556 0
      vertex 3.39289 28.8071 0
      vertex 3.26853 28.6556 0
    endloop
  endfacet
  facet normal 0 0 -1
    outer loop
      vertex 0 29.4 0
      vertex 3.26853 28.6556 0
      vertex 3.17612 28.4827 0
    endloop
  endfacet
  facet normal 0 0 -1
    outer loop
      vertex 0 29.4 0
      vertex 3.17612 28.4827 0
      vertex 3.11922 28.2951 0
    endloop
  endfacet
  facet normal 0 0 -1
    outer loop
      vertex 0 29.4 0
      vertex 3.11922 28.2951 0
      vertex 3.1 28.1 0
    endloop
  endfacet
  facet normal -0 0 -1
    outer loop
      vertex 3.1 4.1 0
      vertex 0 2.8 0
      vertex 3.1 28.1 0
    endloop
  endfacet
  facet normal -0 0 -1
    outer loop
      vertex 3.39289 3.39289 0
      vertex 0.471885 1.2444 0
      vertex 3.26853 3.54443 0
    endloop
  endfacet
  facet normal 0 0 -1
    outer loop
      vertex 0 29.4 0
      vertex 3.1 28.1 0
      vertex 0 2.8 0
    endloop
  endfacet
  facet normal 0 0 -1
    outer loop
      vertex 0.213137 1.72849 0
      vertex 3.26853 3.54443 0
      vertex 0.471885 1.2444 0
    endloop
  endfacet
  facet normal 0 0 -1
    outer loop
      vertex 3.26853 28.6556 0
      vertex 0 29.4 0
      vertex 0.0538006 29.9463 0
    endloop
  endfacet
  facet normal 0 0 -1
    outer loop
      vertex 0.0538006 2.25375 0
      vertex 3.26853 3.54443 0
      vertex 0.213137 1.72849 0
    endloop
  endfacet
  facet normal 0 0 -1
    outer loop
      vertex 3.54443 28.9315 0
      vertex 2.25375 32.1462 0
      vertex 2.8 32.2 0
    endloop
  endfacet
  facet normal 0 0 -1
    outer loop
      vertex 0 2.8 0
      vertex 3.26853 3.54443 0
      vertex 0.0538006 2.25375 0
    endloop
  endfacet
  facet normal 0 0 -1
    outer loop
      vertex 3.54443 28.9315 0
      vertex 1.72849 31.9869 0
      vertex 2.25375 32.1462 0
    endloop
  endfacet
  facet normal -0 0 -1
    outer loop
      vertex 3.26853 3.54443 0
      vertex 0 2.8 0
      vertex 3.17612 3.71732 0
    endloop
  endfacet
  facet normal 0 0 -1
    outer loop
      vertex 3.39289 28.8071 0
      vertex 1.2444 31.7281 0
      vertex 1.72849 31.9869 0
    endloop
  endfacet
  facet normal -0 0 -1
    outer loop
      vertex 3.17612 3.71732 0
      vertex 0 2.8 0
      vertex 3.11922 3.90491 0
    endloop
  endfacet
  facet normal 0 0 -1
    outer loop
      vertex 3.39289 28.8071 0
      vertex 0.820101 31.3799 0
      vertex 1.2444 31.7281 0
    endloop
  endfacet
  facet normal -0 0 -1
    outer loop
      vertex 3.11922 3.90491 0
      vertex 0 2.8 0
      vertex 3.1 4.1 0
    endloop
  endfacet
  facet normal 0 0 -1
    outer loop
      vertex 3.39289 28.8071 0
      vertex 0.471885 30.9556 0
      vertex 0.820101 31.3799 0
    endloop
  endfacet
  facet normal 0 0 -1
    outer loop
      vertex 3.26853 28.6556 0
      vertex 0.213137 30.4715 0
      vertex 0.471885 30.9556 0
    endloop
  endfacet
  facet normal 0 0 -1
    outer loop
      vertex 3.26853 28.6556 0
      vertex 0.0538006 29.9463 0
      vertex 0.213137 30.4715 0
    endloop
  endfacet
  facet normal -0.881921 -0.471397 0
    outer loop
      vertex 0.471885 1.2444 0
      vertex 0.213137 1.72849 1
      vertex 0.213137 1.72849 0
    endloop
  endfacet
  facet normal -0.881921 -0.471397 0
    outer loop
      vertex 0.213137 1.72849 1
      vertex 0.471885 1.2444 0
      vertex 0.471885 1.2444 1
    endloop
  endfacet
  facet normal 0.773012 0.634392 0
    outer loop
      vertex 24.2281 30.9556 1
      vertex 23.8799 31.3799 0
      vertex 23.8799 31.3799 1
    endloop
  endfacet
  facet normal 0.773012 0.634392 0
    outer loop
      vertex 23.8799 31.3799 0
      vertex 24.2281 30.9556 1
      vertex 24.2281 30.9556 0
    endloop
  endfacet
  facet normal 0.95694 0.290285 0
    outer loop
      vertex 24.6462 29.9463 1
      vertex 24.4869 30.4715 0
      vertex 24.4869 30.4715 1
    endloop
  endfacet
  facet normal 0.95694 0.290285 0
    outer loop
      vertex 24.4869 30.4715 0
      vertex 24.6462 29.9463 1
      vertex 24.6462 29.9463 0
    endloop
  endfacet
  facet normal -0.290285 -0.95694 0
    outer loop
      vertex 1.72849 0.213137 0
      vertex 2.25375 0.0538006 1
      vertex 1.72849 0.213137 1
    endloop
  endfacet
  facet normal -0.290285 -0.95694 -0
    outer loop
      vertex 2.25375 0.0538006 1
      vertex 1.72849 0.213137 0
      vertex 2.25375 0.0538006 0
    endloop
  endfacet
  facet normal 0.995185 -0.0980127 0
    outer loop
      vertex 24.6462 2.25375 1
      vertex 24.7 2.8 0
      vertex 24.7 2.8 1
    endloop
  endfacet
  facet normal 0.995185 -0.0980127 0
    outer loop
      vertex 24.7 2.8 0
      vertex 24.6462 2.25375 1
      vertex 24.6462 2.25375 0
    endloop
  endfacet
  facet normal 0.88192 -0.471398 0
    outer loop
      vertex 24.2281 1.2444 1
      vertex 24.4869 1.72849 0
      vertex 24.4869 1.72849 1
    endloop
  endfacet
  facet normal 0.88192 -0.471398 0
    outer loop
      vertex 24.4869 1.72849 0
      vertex 24.2281 1.2444 1
      vertex 24.2281 1.2444 0
    endloop
  endfacet
  facet normal 0.290285 -0.95694 0
    outer loop
      vertex 22.4463 0.0538006 0
      vertex 22.9715 0.213137 1
      vertex 22.4463 0.0538006 1
    endloop
  endfacet
  facet normal 0.290285 -0.95694 0
    outer loop
      vertex 22.9715 0.213137 1
      vertex 22.4463 0.0538006 0
      vertex 22.9715 0.213137 0
    endloop
  endfacet
  facet normal -0.471397 -0.881921 0
    outer loop
      vertex 1.2444 0.471885 0
      vertex 1.72849 0.213137 1
      vertex 1.2444 0.471885 1
    endloop
  endfacet
  facet normal -0.471397 -0.881921 -0
    outer loop
      vertex 1.72849 0.213137 1
      vertex 1.2444 0.471885 0
      vertex 1.72849 0.213137 0
    endloop
  endfacet
  facet normal -0.0980161 -0.995185 0
    outer loop
      vertex 2.25375 0.0538006 0
      vertex 2.8 0 1
      vertex 2.25375 0.0538006 1
    endloop
  endfacet
  facet normal -0.0980161 -0.995185 -0
    outer loop
      vertex 2.8 0 1
      vertex 2.25375 0.0538006 0
      vertex 2.8 0 0
    endloop
  endfacet
  facet normal -0.634394 -0.77301 0
    outer loop
      vertex 0.820101 0.820101 0
      vertex 1.2444 0.471885 1
      vertex 0.820101 0.820101 1
    endloop
  endfacet
  facet normal -0.634394 -0.77301 -0
    outer loop
      vertex 1.2444 0.471885 1
      vertex 0.820101 0.820101 0
      vertex 1.2444 0.471885 0
    endloop
  endfacet
  facet normal 0.0980162 0.995185 -0
    outer loop
      vertex 22.0951 30.3808 1
      vertex 21.9 30.4 2.95
      vertex 22.0951 30.3808 2.95
    endloop
  endfacet
  facet normal 0.0980162 0.995185 0
    outer loop
      vertex 21.9 30.4 2.95
      vertex 22.0951 30.3808 1
      vertex 21.9 30.4 1
    endloop
  endfacet
  facet normal 0.634393 0.773011 -0
    outer loop
      vertex 22.6071 30.1071 1
      vertex 22.4556 30.2315 2.95
      vertex 22.6071 30.1071 2.95
    endloop
  endfacet
  facet normal 0.634393 0.773011 0
    outer loop
      vertex 22.4556 30.2315 2.95
      vertex 22.6071 30.1071 1
      vertex 22.4556 30.2315 1
    endloop
  endfacet
  facet normal 0.995185 -0.0980167 0
    outer loop
      vertex 22.8808 2.60491 2.95
      vertex 22.9 2.8 1
      vertex 22.9 2.8 2.95
    endloop
  endfacet
  facet normal 0.995185 -0.0980167 0
    outer loop
      vertex 22.9 2.8 1
      vertex 22.8808 2.60491 2.95
      vertex 22.8808 2.60491 1
    endloop
  endfacet
  facet normal 0 0 1
    outer loop
      vertex 21.9 30.4 2.95
      vertex 22.9 29.4 2.95
      vertex 22.8808 29.5951 2.95
    endloop
  endfacet
  facet normal 0 0 1
    outer loop
      vertex 22.9 29.4 2.95
      vertex 19.1 28.1 2.95
      vertex 22.9 2.8 2.95
    endloop
  endfacet
  facet normal 0 0 1
    outer loop
      vertex 21.9 30.4 2.95
      vertex 22.8808 29.5951 2.95
      vertex 22.8239 29.7827 2.95
    endloop
  endfacet
  facet normal -0 0 1
    outer loop
      vertex 19.1 4.1 2.95
      vertex 22.9 2.8 2.95
      vertex 19.1 28.1 2.95
    endloop
  endfacet
  facet normal 0 0 1
    outer loop
      vertex 21.9 30.4 2.95
      vertex 22.8239 29.7827 2.95
      vertex 22.7315 29.9556 2.95
    endloop
  endfacet
  facet normal -0 0 1
    outer loop
      vertex 19.0808 3.90491 2.95
      vertex 22.9 2.8 2.95
      vertex 19.1 4.1 2.95
    endloop
  endfacet
  facet normal 0 0 1
    outer loop
      vertex 21.9 30.4 2.95
      vertex 22.7315 29.9556 2.95
      vertex 22.6071 30.1071 2.95
    endloop
  endfacet
  facet normal 0 -0 1
    outer loop
      vertex 21.9 1.8 2.95
      vertex 22.9 2.8 2.95
      vertex 19.0808 3.90491 2.95
    endloop
  endfacet
  facet normal 0 0 1
    outer loop
      vertex 21.9 30.4 2.95
      vertex 22.6071 30.1071 2.95
      vertex 22.4556 30.2315 2.95
    endloop
  endfacet
  facet normal 0 0 1
    outer loop
      vertex 22.8808 2.60491 2.95
      vertex 21.9 1.8 2.95
      vertex 22.8239 2.41732 2.95
    endloop
  endfacet
  facet normal 0 0 1
    outer loop
      vertex 21.9 30.4 2.95
      vertex 22.4556 30.2315 2.95
      vertex 22.2827 30.3239 2.95
    endloop
  endfacet
  facet normal 0 0 1
    outer loop
      vertex 22.8239 2.41732 2.95
      vertex 21.9 1.8 2.95
      vertex 22.7315 2.24443 2.95
    endloop
  endfacet
  facet normal 0 0 1
    outer loop
      vertex 21.9 30.4 2.95
      vertex 22.2827 30.3239 2.95
      vertex 22.0951 30.3808 2.95
    endloop
  endfacet
  facet normal 0 0 1
    outer loop
      vertex 22.7315 2.24443 2.95
      vertex 21.9 1.8 2.95
      vertex 22.6071 2.09289 2.95
    endloop
  endfacet
  facet normal 0 0 1
    outer loop
      vertex 22.9 29.4 2.95
      vertex 21.9 30.4 2.95
      vertex 19.0808 28.2951 2.95
    endloop
  endfacet
  facet normal 0 0 1
    outer loop
      vertex 22.6071 2.09289 2.95
      vertex 21.9 1.8 2.95
      vertex 22.4556 1.96853 2.95
    endloop
  endfacet
  facet normal 0 0 1
    outer loop
      vertex 22.4556 1.96853 2.95
      vertex 21.9 1.8 2.95
      vertex 22.2827 1.87612 2.95
    endloop
  endfacet
  facet normal 0 0 1
    outer loop
      vertex 22.9 29.4 2.95
      vertex 19.0808 28.2951 2.95
      vertex 19.1 28.1 2.95
    endloop
  endfacet
  facet normal 0 0 1
    outer loop
      vertex 21.9 30.4 2.95
      vertex 19.0239 28.4827 2.95
      vertex 19.0808 28.2951 2.95
    endloop
  endfacet
  facet normal 0 0 1
    outer loop
      vertex 21.9 30.4 2.95
      vertex 18.9315 28.6556 2.95
      vertex 19.0239 28.4827 2.95
    endloop
  endfacet
  facet normal 0 0 1
    outer loop
      vertex 21.9 30.4 2.95
      vertex 18.8071 28.8071 2.95
      vertex 18.9315 28.6556 2.95
    endloop
  endfacet
  facet normal 0 0 1
    outer loop
      vertex 21.9 30.4 2.95
      vertex 18.6556 28.9315 2.95
      vertex 18.8071 28.8071 2.95
    endloop
  endfacet
  facet normal 0 0 1
    outer loop
      vertex 21.9 30.4 2.95
      vertex 18.4827 29.0239 2.95
      vertex 18.6556 28.9315 2.95
    endloop
  endfacet
  facet normal 0 0 1
    outer loop
      vertex 21.9 30.4 2.95
      vertex 18.2951 29.0808 2.95
      vertex 18.4827 29.0239 2.95
    endloop
  endfacet
  facet normal 0 0 1
    outer loop
      vertex 21.9 30.4 2.95
      vertex 18.1 29.1 2.95
      vertex 18.2951 29.0808 2.95
    endloop
  endfacet
  facet normal -0 0 1
    outer loop
      vertex 2.8 30.4 2.95
      vertex 18.1 29.1 2.95
      vertex 21.9 30.4 2.95
    endloop
  endfacet
  facet normal 0 0 1
    outer loop
      vertex 3.11922 28.2951 2.95
      vertex 1.8 29.4 2.95
      vertex 3.1 28.1 2.95
    endloop
  endfacet
  facet normal 0 0 1
    outer loop
      vertex 3.17612 28.4827 2.95
      vertex 1.8 29.4 2.95
      vertex 3.11922 28.2951 2.95
    endloop
  endfacet
  facet normal 0 0 1
    outer loop
      vertex 3.26853 28.6556 2.95
      vertex 1.8 29.4 2.95
      vertex 3.17612 28.4827 2.95
    endloop
  endfacet
  facet normal 0 0 1
    outer loop
      vertex 3.39289 28.8071 2.95
      vertex 1.8 29.4 2.95
      vertex 3.26853 28.6556 2.95
    endloop
  endfacet
  facet normal -0 0 1
    outer loop
      vertex 1.8 29.4 2.95
      vertex 3.39289 28.8071 2.95
      vertex 2.8 30.4 2.95
    endloop
  endfacet
  facet normal 0 0 1
    outer loop
      vertex 3.54443 28.9315 2.95
      vertex 2.8 30.4 2.95
      vertex 3.39289 28.8071 2.95
    endloop
  endfacet
  facet normal 0 0 1
    outer loop
      vertex 3.71732 29.0239 2.95
      vertex 2.8 30.4 2.95
      vertex 3.54443 28.9315 2.95
    endloop
  endfacet
  facet normal 0 0 1
    outer loop
      vertex 3.90491 29.0808 2.95
      vertex 2.8 30.4 2.95
      vertex 3.71732 29.0239 2.95
    endloop
  endfacet
  facet normal 0 0 1
    outer loop
      vertex 4.1 29.1 2.95
      vertex 2.8 30.4 2.95
      vertex 3.90491 29.0808 2.95
    endloop
  endfacet
  facet normal 0 0 1
    outer loop
      vertex 18.1 29.1 2.95
      vertex 2.8 30.4 2.95
      vertex 4.1 29.1 2.95
    endloop
  endfacet
  facet normal 0 0 1
    outer loop
      vertex 22.2827 1.87612 2.95
      vertex 21.9 1.8 2.95
      vertex 22.0951 1.81921 2.95
    endloop
  endfacet
  facet normal 0 0 1
    outer loop
      vertex 22.9 2.8 2.95
      vertex 21.9 1.8 2.95
      vertex 22.8808 2.60491 2.95
    endloop
  endfacet
  facet normal -0 0 1
    outer loop
      vertex 19.0239 3.71732 2.95
      vertex 21.9 1.8 2.95
      vertex 19.0808 3.90491 2.95
    endloop
  endfacet
  facet normal -0 0 1
    outer loop
      vertex 18.9315 3.54443 2.95
      vertex 21.9 1.8 2.95
      vertex 19.0239 3.71732 2.95
    endloop
  endfacet
  facet normal -0 0 1
    outer loop
      vertex 18.8071 3.39289 2.95
      vertex 21.9 1.8 2.95
      vertex 18.9315 3.54443 2.95
    endloop
  endfacet
  facet normal -0 0 1
    outer loop
      vertex 18.6556 3.26853 2.95
      vertex 21.9 1.8 2.95
      vertex 18.8071 3.39289 2.95
    endloop
  endfacet
  facet normal -0 0 1
    outer loop
      vertex 18.4827 3.17612 2.95
      vertex 21.9 1.8 2.95
      vertex 18.6556 3.26853 2.95
    endloop
  endfacet
  facet normal -0 0 1
    outer loop
      vertex 18.2951 3.11922 2.95
      vertex 21.9 1.8 2.95
      vertex 18.4827 3.17612 2.95
    endloop
  endfacet
  facet normal -0 0 1
    outer loop
      vertex 18.1 3.1 2.95
      vertex 21.9 1.8 2.95
      vertex 18.2951 3.11922 2.95
    endloop
  endfacet
  facet normal 0 0 1
    outer loop
      vertex 2.8 1.8 2.95
      vertex 18.1 3.1 2.95
      vertex 4.1 3.1 2.95
    endloop
  endfacet
  facet normal 0 0 1
    outer loop
      vertex 18.1 3.1 2.95
      vertex 2.8 1.8 2.95
      vertex 21.9 1.8 2.95
    endloop
  endfacet
  facet normal 0 0 1
    outer loop
      vertex 3.90491 3.11922 2.95
      vertex 2.8 1.8 2.95
      vertex 4.1 3.1 2.95
    endloop
  endfacet
  facet normal 0 0 1
    outer loop
      vertex 3.71732 3.17612 2.95
      vertex 2.8 1.8 2.95
      vertex 3.90491 3.11922 2.95
    endloop
  endfacet
  facet normal 0 0 1
    outer loop
      vertex 3.54443 3.26853 2.95
      vertex 2.8 1.8 2.95
      vertex 3.71732 3.17612 2.95
    endloop
  endfacet
  facet normal 0 0 1
    outer loop
      vertex 3.39289 3.39289 2.95
      vertex 2.8 1.8 2.95
      vertex 3.54443 3.26853 2.95
    endloop
  endfacet
  facet normal 0 0 1
    outer loop
      vertex 1.8 2.8 2.95
      vertex 3.39289 3.39289 2.95
      vertex 3.26853 3.54443 2.95
    endloop
  endfacet
  facet normal 0 0 1
    outer loop
      vertex 1.8 2.8 2.95
      vertex 3.26853 3.54443 2.95
      vertex 3.17612 3.71732 2.95
    endloop
  endfacet
  facet normal 0 0 1
    outer loop
      vertex 1.8 2.8 2.95
      vertex 3.17612 3.71732 2.95
      vertex 3.11922 3.90491 2.95
    endloop
  endfacet
  facet normal 0 0 1
    outer loop
      vertex 1.8 2.8 2.95
      vertex 3.11922 3.90491 2.95
      vertex 3.1 4.1 2.95
    endloop
  endfacet
  facet normal 0 0 1
    outer loop
      vertex 3.1 28.1 2.95
      vertex 1.8 29.4 2.95
      vertex 3.1 4.1 2.95
    endloop
  endfacet
  facet normal 0 0 1
    outer loop
      vertex 1.8 29.4 2.95
      vertex 2.8 30.4 2.95
      vertex 2.60491 30.3808 2.95
    endloop
  endfacet
  facet normal 0 0 1
    outer loop
      vertex 1.8 2.8 2.95
      vertex 3.1 4.1 2.95
      vertex 1.8 29.4 2.95
    endloop
  endfacet
  facet normal 0 0 1
    outer loop
      vertex 1.8 29.4 2.95
      vertex 2.60491 30.3808 2.95
      vertex 2.41732 30.3239 2.95
    endloop
  endfacet
  facet normal 0 0 1
    outer loop
      vertex 3.39289 3.39289 2.95
      vertex 1.8 2.8 2.95
      vertex 1.81921 2.60491 2.95
    endloop
  endfacet
  facet normal 0 0 1
    outer loop
      vertex 1.8 29.4 2.95
      vertex 2.41732 30.3239 2.95
      vertex 2.24443 30.2315 2.95
    endloop
  endfacet
  facet normal 0 0 1
    outer loop
      vertex 3.39289 3.39289 2.95
      vertex 2.60491 1.81921 2.95
      vertex 2.8 1.8 2.95
    endloop
  endfacet
  facet normal 0 0 1
    outer loop
      vertex 1.8 29.4 2.95
      vertex 2.24443 30.2315 2.95
      vertex 2.09289 30.1071 2.95
    endloop
  endfacet
  facet normal 0 0 1
    outer loop
      vertex 3.39289 3.39289 2.95
      vertex 2.41732 1.87612 2.95
      vertex 2.60491 1.81921 2.95
    endloop
  endfacet
  facet normal 0 0 1
    outer loop
      vertex 1.8 29.4 2.95
      vertex 2.09289 30.1071 2.95
      vertex 1.96853 29.9556 2.95
    endloop
  endfacet
  facet normal 0 0 1
    outer loop
      vertex 3.39289 3.39289 2.95
      vertex 2.24443 1.96853 2.95
      vertex 2.41732 1.87612 2.95
    endloop
  endfacet
  facet normal 0 0 1
    outer loop
      vertex 1.8 29.4 2.95
      vertex 1.96853 29.9556 2.95
      vertex 1.87612 29.7827 2.95
    endloop
  endfacet
  facet normal 0 0 1
    outer loop
      vertex 3.39289 3.39289 2.95
      vertex 2.09289 2.09289 2.95
      vertex 2.24443 1.96853 2.95
    endloop
  endfacet
  facet normal 0 0 1
    outer loop
      vertex 1.8 29.4 2.95
      vertex 1.87612 29.7827 2.95
      vertex 1.81921 29.5951 2.95
    endloop
  endfacet
  facet normal 0 0 1
    outer loop
      vertex 3.39289 3.39289 2.95
      vertex 1.96853 2.24443 2.95
      vertex 2.09289 2.09289 2.95
    endloop
  endfacet
  facet normal 0 0 1
    outer loop
      vertex 3.39289 3.39289 2.95
      vertex 1.87612 2.41732 2.95
      vertex 1.96853 2.24443 2.95
    endloop
  endfacet
  facet normal 0 0 1
    outer loop
      vertex 3.39289 3.39289 2.95
      vertex 1.81921 2.60491 2.95
      vertex 1.87612 2.41732 2.95
    endloop
  endfacet
  facet normal 0.290287 0.95694 -0
    outer loop
      vertex 22.2827 30.3239 1
      vertex 22.0951 30.3808 2.95
      vertex 22.2827 30.3239 2.95
    endloop
  endfacet
  facet normal 0.290287 0.95694 0
    outer loop
      vertex 22.0951 30.3808 2.95
      vertex 22.2827 30.3239 1
      vertex 22.0951 30.3808 1
    endloop
  endfacet
  facet normal 0.995185 0.0980162 0
    outer loop
      vertex 22.9 29.4 2.95
      vertex 22.8808 29.5951 1
      vertex 22.8808 29.5951 2.95
    endloop
  endfacet
  facet normal 0.995185 0.0980162 0
    outer loop
      vertex 22.8808 29.5951 1
      vertex 22.9 29.4 2.95
      vertex 22.9 29.4 1
    endloop
  endfacet
  facet normal 0.95694 -0.290286 0
    outer loop
      vertex 22.8239 2.41732 2.95
      vertex 22.8808 2.60491 1
      vertex 22.8808 2.60491 2.95
    endloop
  endfacet
  facet normal 0.95694 -0.290286 0
    outer loop
      vertex 22.8808 2.60491 1
      vertex 22.8239 2.41732 2.95
      vertex 22.8239 2.41732 1
    endloop
  endfacet
  facet normal -1 0 0
    outer loop
      vertex 1.8 2.8 1
      vertex 1.8 29.4 2.95
      vertex 1.8 29.4 1
    endloop
  endfacet
  facet normal -1 -0 0
    outer loop
      vertex 1.8 29.4 2.95
      vertex 1.8 2.8 1
      vertex 1.8 2.8 2.95
    endloop
  endfacet
  facet normal 0.773011 0.634393 0
    outer loop
      vertex 22.7315 29.9556 2.95
      vertex 22.6071 30.1071 1
      vertex 22.6071 30.1071 2.95
    endloop
  endfacet
  facet normal 0.773011 0.634393 0
    outer loop
      vertex 22.6071 30.1071 1
      vertex 22.7315 29.9556 2.95
      vertex 22.7315 29.9556 1
    endloop
  endfacet
  facet normal 0.881924 0.471391 0
    outer loop
      vertex 22.8239 29.7827 2.95
      vertex 22.7315 29.9556 1
      vertex 22.7315 29.9556 2.95
    endloop
  endfacet
  facet normal 0.881924 0.471391 0
    outer loop
      vertex 22.7315 29.9556 1
      vertex 22.8239 29.7827 2.95
      vertex 22.8239 29.7827 1
    endloop
  endfacet
  facet normal 0 1 -0
    outer loop
      vertex 21.9 30.4 1
      vertex 2.8 30.4 2.95
      vertex 21.9 30.4 2.95
    endloop
  endfacet
  facet normal 0 1 0
    outer loop
      vertex 2.8 30.4 2.95
      vertex 21.9 30.4 1
      vertex 2.8 30.4 1
    endloop
  endfacet
  facet normal 0.471391 0.881924 -0
    outer loop
      vertex 22.4556 30.2315 1
      vertex 22.2827 30.3239 2.95
      vertex 22.4556 30.2315 2.95
    endloop
  endfacet
  facet normal 0.471391 0.881924 0
    outer loop
      vertex 22.2827 30.3239 2.95
      vertex 22.4556 30.2315 1
      vertex 22.2827 30.3239 1
    endloop
  endfacet
  facet normal 1 -0 0
    outer loop
      vertex 22.9 2.8 2.95
      vertex 22.9 29.4 1
      vertex 22.9 29.4 2.95
    endloop
  endfacet
  facet normal 1 0 0
    outer loop
      vertex 22.9 29.4 1
      vertex 22.9 2.8 2.95
      vertex 22.9 2.8 1
    endloop
  endfacet
  facet normal 0.881923 -0.471394 0
    outer loop
      vertex 22.7315 2.24443 2.95
      vertex 22.8239 2.41732 1
      vertex 22.8239 2.41732 2.95
    endloop
  endfacet
  facet normal 0.881923 -0.471394 0
    outer loop
      vertex 22.8239 2.41732 1
      vertex 22.7315 2.24443 2.95
      vertex 22.7315 2.24443 1
    endloop
  endfacet
  facet normal 0 -1 0
    outer loop
      vertex 2.8 1.8 1
      vertex 21.9 1.8 2.95
      vertex 2.8 1.8 2.95
    endloop
  endfacet
  facet normal 0 -1 -0
    outer loop
      vertex 21.9 1.8 2.95
      vertex 2.8 1.8 1
      vertex 21.9 1.8 1
    endloop
  endfacet
  facet normal -0.995184 0.098021 0
    outer loop
      vertex 1.8 29.4 1
      vertex 1.81921 29.5951 2.95
      vertex 1.81921 29.5951 1
    endloop
  endfacet
  facet normal -0.995184 0.098021 0
    outer loop
      vertex 1.81921 29.5951 2.95
      vertex 1.8 29.4 1
      vertex 1.8 29.4 2.95
    endloop
  endfacet
  facet normal -0.773011 0.634393 0
    outer loop
      vertex 1.96853 29.9556 1
      vertex 2.09289 30.1071 2.95
      vertex 2.09289 30.1071 1
    endloop
  endfacet
  facet normal -0.773011 0.634393 0
    outer loop
      vertex 2.09289 30.1071 2.95
      vertex 1.96853 29.9556 1
      vertex 1.96853 29.9556 2.95
    endloop
  endfacet
  facet normal 0.95694 0.290287 0
    outer loop
      vertex 22.8808 29.5951 2.95
      vertex 22.8239 29.7827 1
      vertex 22.8239 29.7827 2.95
    endloop
  endfacet
  facet normal 0.95694 0.290287 0
    outer loop
      vertex 22.8239 29.7827 1
      vertex 22.8808 29.5951 2.95
      vertex 22.8808 29.5951 1
    endloop
  endfacet
  facet normal -0.95694 0.290287 0
    outer loop
      vertex 1.81921 29.5951 1
      vertex 1.87612 29.7827 2.95
      vertex 1.87612 29.7827 1
    endloop
  endfacet
  facet normal -0.95694 0.290287 0
    outer loop
      vertex 1.87612 29.7827 2.95
      vertex 1.81921 29.5951 1
      vertex 1.81921 29.5951 2.95
    endloop
  endfacet
  facet normal -0.881924 0.471391 0
    outer loop
      vertex 1.87612 29.7827 1
      vertex 1.96853 29.9556 2.95
      vertex 1.96853 29.9556 1
    endloop
  endfacet
  facet normal -0.881924 0.471391 0
    outer loop
      vertex 1.96853 29.9556 2.95
      vertex 1.87612 29.7827 1
      vertex 1.87612 29.7827 2.95
    endloop
  endfacet
  facet normal -0.0980167 0.995185 0
    outer loop
      vertex 2.8 30.4 1
      vertex 2.60491 30.3808 2.95
      vertex 2.8 30.4 2.95
    endloop
  endfacet
  facet normal -0.0980167 0.995185 0
    outer loop
      vertex 2.60491 30.3808 2.95
      vertex 2.8 30.4 1
      vertex 2.60491 30.3808 1
    endloop
  endfacet
  facet normal -0.290286 0.95694 0
    outer loop
      vertex 2.60491 30.3808 1
      vertex 2.41732 30.3239 2.95
      vertex 2.60491 30.3808 2.95
    endloop
  endfacet
  facet normal -0.290286 0.95694 0
    outer loop
      vertex 2.41732 30.3239 2.95
      vertex 2.60491 30.3808 1
      vertex 2.41732 30.3239 1
    endloop
  endfacet
  facet normal -0.634393 0.773011 0
    outer loop
      vertex 2.24443 30.2315 1
      vertex 2.09289 30.1071 2.95
      vertex 2.24443 30.2315 2.95
    endloop
  endfacet
  facet normal -0.634393 0.773011 0
    outer loop
      vertex 2.09289 30.1071 2.95
      vertex 2.24443 30.2315 1
      vertex 2.09289 30.1071 1
    endloop
  endfacet
  facet normal -0.290286 -0.95694 0
    outer loop
      vertex 2.41732 1.87612 1
      vertex 2.60491 1.81921 2.95
      vertex 2.41732 1.87612 2.95
    endloop
  endfacet
  facet normal -0.290286 -0.95694 -0
    outer loop
      vertex 2.60491 1.81921 2.95
      vertex 2.41732 1.87612 1
      vertex 2.60491 1.81921 1
    endloop
  endfacet
  facet normal -0.471394 -0.881923 0
    outer loop
      vertex 2.24443 1.96853 1
      vertex 2.41732 1.87612 2.95
      vertex 2.24443 1.96853 2.95
    endloop
  endfacet
  facet normal -0.471394 -0.881923 -0
    outer loop
      vertex 2.41732 1.87612 2.95
      vertex 2.24443 1.96853 1
      vertex 2.41732 1.87612 1
    endloop
  endfacet
  facet normal -0.881923 -0.471394 0
    outer loop
      vertex 1.96853 2.24443 1
      vertex 1.87612 2.41732 2.95
      vertex 1.87612 2.41732 1
    endloop
  endfacet
  facet normal -0.881923 -0.471394 0
    outer loop
      vertex 1.87612 2.41732 2.95
      vertex 1.96853 2.24443 1
      vertex 1.96853 2.24443 2.95
    endloop
  endfacet
  facet normal -0.471394 0.881923 0
    outer loop
      vertex 2.41732 30.3239 1
      vertex 2.24443 30.2315 2.95
      vertex 2.41732 30.3239 2.95
    endloop
  endfacet
  facet normal -0.471394 0.881923 0
    outer loop
      vertex 2.24443 30.2315 2.95
      vertex 2.41732 30.3239 1
      vertex 2.24443 30.2315 1
    endloop
  endfacet
  facet normal 0.098021 -0.995184 0
    outer loop
      vertex 21.9 1.8 1
      vertex 22.0951 1.81921 2.95
      vertex 21.9 1.8 2.95
    endloop
  endfacet
  facet normal 0.098021 -0.995184 0
    outer loop
      vertex 22.0951 1.81921 2.95
      vertex 21.9 1.8 1
      vertex 22.0951 1.81921 1
    endloop
  endfacet
  facet normal -0.0980215 -0.995184 0
    outer loop
      vertex 2.60491 1.81921 1
      vertex 2.8 1.8 2.95
      vertex 2.60491 1.81921 2.95
    endloop
  endfacet
  facet normal -0.0980215 -0.995184 -0
    outer loop
      vertex 2.8 1.8 2.95
      vertex 2.60491 1.81921 1
      vertex 2.8 1.8 1
    endloop
  endfacet
  facet normal 0.290287 -0.95694 0
    outer loop
      vertex 22.0951 1.81921 1
      vertex 22.2827 1.87612 2.95
      vertex 22.0951 1.81921 2.95
    endloop
  endfacet
  facet normal 0.290287 -0.95694 0
    outer loop
      vertex 22.2827 1.87612 2.95
      vertex 22.0951 1.81921 1
      vertex 22.2827 1.87612 1
    endloop
  endfacet
  facet normal 0.634393 -0.773011 0
    outer loop
      vertex 22.4556 1.96853 1
      vertex 22.6071 2.09289 2.95
      vertex 22.4556 1.96853 2.95
    endloop
  endfacet
  facet normal 0.634393 -0.773011 0
    outer loop
      vertex 22.6071 2.09289 2.95
      vertex 22.4556 1.96853 1
      vertex 22.6071 2.09289 1
    endloop
  endfacet
  facet normal 0.471391 -0.881924 0
    outer loop
      vertex 22.2827 1.87612 1
      vertex 22.4556 1.96853 2.95
      vertex 22.2827 1.87612 2.95
    endloop
  endfacet
  facet normal 0.471391 -0.881924 0
    outer loop
      vertex 22.4556 1.96853 2.95
      vertex 22.2827 1.87612 1
      vertex 22.4556 1.96853 1
    endloop
  endfacet
  facet normal 0.773011 -0.634393 0
    outer loop
      vertex 22.6071 2.09289 2.95
      vertex 22.7315 2.24443 1
      vertex 22.7315 2.24443 2.95
    endloop
  endfacet
  facet normal 0.773011 -0.634393 0
    outer loop
      vertex 22.7315 2.24443 1
      vertex 22.6071 2.09289 2.95
      vertex 22.6071 2.09289 1
    endloop
  endfacet
  facet normal -0.634393 -0.773011 0
    outer loop
      vertex 2.09289 2.09289 1
      vertex 2.24443 1.96853 2.95
      vertex 2.09289 2.09289 2.95
    endloop
  endfacet
  facet normal -0.634393 -0.773011 -0
    outer loop
      vertex 2.24443 1.96853 2.95
      vertex 2.09289 2.09289 1
      vertex 2.24443 1.96853 1
    endloop
  endfacet
  facet normal -0.773011 -0.634393 0
    outer loop
      vertex 2.09289 2.09289 1
      vertex 1.96853 2.24443 2.95
      vertex 1.96853 2.24443 1
    endloop
  endfacet
  facet normal -0.773011 -0.634393 0
    outer loop
      vertex 1.96853 2.24443 2.95
      vertex 2.09289 2.09289 1
      vertex 2.09289 2.09289 2.95
    endloop
  endfacet
  facet normal -0.95694 -0.290286 0
    outer loop
      vertex 1.87612 2.41732 1
      vertex 1.81921 2.60491 2.95
      vertex 1.81921 2.60491 1
    endloop
  endfacet
  facet normal -0.95694 -0.290286 0
    outer loop
      vertex 1.81921 2.60491 2.95
      vertex 1.87612 2.41732 1
      vertex 1.87612 2.41732 2.95
    endloop
  endfacet
  facet normal -0.995184 -0.0980215 0
    outer loop
      vertex 1.81921 2.60491 1
      vertex 1.8 2.8 2.95
      vertex 1.8 2.8 1
    endloop
  endfacet
  facet normal -0.995184 -0.0980215 0
    outer loop
      vertex 1.8 2.8 2.95
      vertex 1.81921 2.60491 1
      vertex 1.81921 2.60491 2.95
    endloop
  endfacet
  facet normal -0.995185 -0.0980162 0
    outer loop
      vertex 19.1 28.1 0
      vertex 19.0808 28.2951 2.95
      vertex 19.0808 28.2951 0
    endloop
  endfacet
  facet normal -0.995185 -0.0980162 0
    outer loop
      vertex 19.0808 28.2951 2.95
      vertex 19.1 28.1 0
      vertex 19.1 28.1 2.95
    endloop
  endfacet
  facet normal -1 0 0
    outer loop
      vertex 19.1 4.1 0
      vertex 19.1 28.1 2.95
      vertex 19.1 28.1 0
    endloop
  endfacet
  facet normal -1 -0 0
    outer loop
      vertex 19.1 28.1 2.95
      vertex 19.1 4.1 0
      vertex 19.1 4.1 2.95
    endloop
  endfacet
  facet normal 0.881924 -0.471391 0
    outer loop
      vertex 3.17612 28.4827 2.95
      vertex 3.26853 28.6556 0
      vertex 3.26853 28.6556 2.95
    endloop
  endfacet
  facet normal 0.881924 -0.471391 0
    outer loop
      vertex 3.26853 28.6556 0
      vertex 3.17612 28.4827 2.95
      vertex 3.17612 28.4827 0
    endloop
  endfacet
  facet normal 0 1 -0
    outer loop
      vertex 18.1 3.1 0
      vertex 4.1 3.1 2.95
      vertex 18.1 3.1 2.95
    endloop
  endfacet
  facet normal 0 1 0
    outer loop
      vertex 4.1 3.1 2.95
      vertex 18.1 3.1 0
      vertex 4.1 3.1 0
    endloop
  endfacet
  facet normal -0.773011 0.634393 0
    outer loop
      vertex 18.8071 3.39289 0
      vertex 18.9315 3.54443 2.95
      vertex 18.9315 3.54443 0
    endloop
  endfacet
  facet normal -0.773011 0.634393 0
    outer loop
      vertex 18.9315 3.54443 2.95
      vertex 18.8071 3.39289 0
      vertex 18.8071 3.39289 2.95
    endloop
  endfacet
  facet normal -0.95694 -0.290287 0
    outer loop
      vertex 19.0808 28.2951 0
      vertex 19.0239 28.4827 2.95
      vertex 19.0239 28.4827 0
    endloop
  endfacet
  facet normal -0.95694 -0.290287 0
    outer loop
      vertex 19.0239 28.4827 2.95
      vertex 19.0808 28.2951 0
      vertex 19.0808 28.2951 2.95
    endloop
  endfacet
  facet normal -0.773011 -0.634393 0
    outer loop
      vertex 18.9315 28.6556 0
      vertex 18.8071 28.8071 2.95
      vertex 18.8071 28.8071 0
    endloop
  endfacet
  facet normal -0.773011 -0.634393 0
    outer loop
      vertex 18.8071 28.8071 2.95
      vertex 18.9315 28.6556 0
      vertex 18.9315 28.6556 2.95
    endloop
  endfacet
  facet normal -0.881924 -0.471391 0
    outer loop
      vertex 19.0239 28.4827 0
      vertex 18.9315 28.6556 2.95
      vertex 18.9315 28.6556 0
    endloop
  endfacet
  facet normal -0.881924 -0.471391 0
    outer loop
      vertex 18.9315 28.6556 2.95
      vertex 19.0239 28.4827 0
      vertex 19.0239 28.4827 2.95
    endloop
  endfacet
  facet normal 1 -0 0
    outer loop
      vertex 3.1 4.1 2.95
      vertex 3.1 28.1 0
      vertex 3.1 28.1 2.95
    endloop
  endfacet
  facet normal 1 0 0
    outer loop
      vertex 3.1 28.1 0
      vertex 3.1 4.1 2.95
      vertex 3.1 4.1 0
    endloop
  endfacet
  facet normal -0.0980162 -0.995185 0
    outer loop
      vertex 18.1 29.1 0
      vertex 18.2951 29.0808 2.95
      vertex 18.1 29.1 2.95
    endloop
  endfacet
  facet normal -0.0980162 -0.995185 -0
    outer loop
      vertex 18.2951 29.0808 2.95
      vertex 18.1 29.1 0
      vertex 18.2951 29.0808 0
    endloop
  endfacet
  facet normal -0.995185 0.0980167 0
    outer loop
      vertex 19.0808 3.90491 0
      vertex 19.1 4.1 2.95
      vertex 19.1 4.1 0
    endloop
  endfacet
  facet normal -0.995185 0.0980167 0
    outer loop
      vertex 19.1 4.1 2.95
      vertex 19.0808 3.90491 0
      vertex 19.0808 3.90491 2.95
    endloop
  endfacet
  facet normal 0 -1 0
    outer loop
      vertex 4.1 29.1 0
      vertex 18.1 29.1 2.95
      vertex 4.1 29.1 2.95
    endloop
  endfacet
  facet normal 0 -1 -0
    outer loop
      vertex 18.1 29.1 2.95
      vertex 4.1 29.1 0
      vertex 18.1 29.1 0
    endloop
  endfacet
  facet normal 0.773011 -0.634393 0
    outer loop
      vertex 3.26853 28.6556 2.95
      vertex 3.39289 28.8071 0
      vertex 3.39289 28.8071 2.95
    endloop
  endfacet
  facet normal 0.773011 -0.634393 0
    outer loop
      vertex 3.39289 28.8071 0
      vertex 3.26853 28.6556 2.95
      vertex 3.26853 28.6556 0
    endloop
  endfacet
  facet normal 0.634393 -0.773011 0
    outer loop
      vertex 3.39289 28.8071 0
      vertex 3.54443 28.9315 2.95
      vertex 3.39289 28.8071 2.95
    endloop
  endfacet
  facet normal 0.634393 -0.773011 0
    outer loop
      vertex 3.54443 28.9315 2.95
      vertex 3.39289 28.8071 0
      vertex 3.54443 28.9315 0
    endloop
  endfacet
  facet normal 0.995184 -0.098021 0
    outer loop
      vertex 3.1 28.1 2.95
      vertex 3.11922 28.2951 0
      vertex 3.11922 28.2951 2.95
    endloop
  endfacet
  facet normal 0.995184 -0.098021 0
    outer loop
      vertex 3.11922 28.2951 0
      vertex 3.1 28.1 2.95
      vertex 3.1 28.1 0
    endloop
  endfacet
  facet normal 0.773011 0.634393 0
    outer loop
      vertex 3.39289 3.39289 2.95
      vertex 3.26853 3.54443 0
      vertex 3.26853 3.54443 2.95
    endloop
  endfacet
  facet normal 0.773011 0.634393 0
    outer loop
      vertex 3.26853 3.54443 0
      vertex 3.39289 3.39289 2.95
      vertex 3.39289 3.39289 0
    endloop
  endfacet
  facet normal -0.634393 0.773011 0
    outer loop
      vertex 18.8071 3.39289 0
      vertex 18.6556 3.26853 2.95
      vertex 18.8071 3.39289 2.95
    endloop
  endfacet
  facet normal -0.634393 0.773011 0
    outer loop
      vertex 18.6556 3.26853 2.95
      vertex 18.8071 3.39289 0
      vertex 18.6556 3.26853 0
    endloop
  endfacet
  facet normal -0.290287 -0.95694 0
    outer loop
      vertex 18.2951 29.0808 0
      vertex 18.4827 29.0239 2.95
      vertex 18.2951 29.0808 2.95
    endloop
  endfacet
  facet normal -0.290287 -0.95694 -0
    outer loop
      vertex 18.4827 29.0239 2.95
      vertex 18.2951 29.0808 0
      vertex 18.4827 29.0239 0
    endloop
  endfacet
  facet normal 0.95694 -0.290287 0
    outer loop
      vertex 3.11922 28.2951 2.95
      vertex 3.17612 28.4827 0
      vertex 3.17612 28.4827 2.95
    endloop
  endfacet
  facet normal 0.95694 -0.290287 0
    outer loop
      vertex 3.17612 28.4827 0
      vertex 3.11922 28.2951 2.95
      vertex 3.11922 28.2951 0
    endloop
  endfacet
  facet normal 0.881923 0.471394 0
    outer loop
      vertex 3.26853 3.54443 2.95
      vertex 3.17612 3.71732 0
      vertex 3.17612 3.71732 2.95
    endloop
  endfacet
  facet normal 0.881923 0.471394 0
    outer loop
      vertex 3.17612 3.71732 0
      vertex 3.26853 3.54443 2.95
      vertex 3.26853 3.54443 0
    endloop
  endfacet
  facet normal 0.995184 0.0980215 0
    outer loop
      vertex 3.11922 3.90491 2.95
      vertex 3.1 4.1 0
      vertex 3.1 4.1 2.95
    endloop
  endfacet
  facet normal 0.995184 0.0980215 0
    outer loop
      vertex 3.1 4.1 0
      vertex 3.11922 3.90491 2.95
      vertex 3.11922 3.90491 0
    endloop
  endfacet
  facet normal 0.634393 0.773011 -0
    outer loop
      vertex 3.54443 3.26853 0
      vertex 3.39289 3.39289 2.95
      vertex 3.54443 3.26853 2.95
    endloop
  endfacet
  facet normal 0.634393 0.773011 0
    outer loop
      vertex 3.39289 3.39289 2.95
      vertex 3.54443 3.26853 0
      vertex 3.39289 3.39289 0
    endloop
  endfacet
  facet normal 0.290286 0.95694 -0
    outer loop
      vertex 3.90491 3.11922 0
      vertex 3.71732 3.17612 2.95
      vertex 3.90491 3.11922 2.95
    endloop
  endfacet
  facet normal 0.290286 0.95694 0
    outer loop
      vertex 3.71732 3.17612 2.95
      vertex 3.90491 3.11922 0
      vertex 3.71732 3.17612 0
    endloop
  endfacet
  facet normal -0.098021 0.995184 0
    outer loop
      vertex 18.2951 3.11922 0
      vertex 18.1 3.1 2.95
      vertex 18.2951 3.11922 2.95
    endloop
  endfacet
  facet normal -0.098021 0.995184 0
    outer loop
      vertex 18.1 3.1 2.95
      vertex 18.2951 3.11922 0
      vertex 18.1 3.1 0
    endloop
  endfacet
  facet normal -0.95694 0.290286 0
    outer loop
      vertex 19.0239 3.71732 0
      vertex 19.0808 3.90491 2.95
      vertex 19.0808 3.90491 0
    endloop
  endfacet
  facet normal -0.95694 0.290286 0
    outer loop
      vertex 19.0808 3.90491 2.95
      vertex 19.0239 3.71732 0
      vertex 19.0239 3.71732 2.95
    endloop
  endfacet
  facet normal -0.881923 0.471394 0
    outer loop
      vertex 18.9315 3.54443 0
      vertex 19.0239 3.71732 2.95
      vertex 19.0239 3.71732 0
    endloop
  endfacet
  facet normal -0.881923 0.471394 0
    outer loop
      vertex 19.0239 3.71732 2.95
      vertex 18.9315 3.54443 0
      vertex 18.9315 3.54443 2.95
    endloop
  endfacet
  facet normal 0.0980167 -0.995185 0
    outer loop
      vertex 3.90491 29.0808 0
      vertex 4.1 29.1 2.95
      vertex 3.90491 29.0808 2.95
    endloop
  endfacet
  facet normal 0.0980167 -0.995185 0
    outer loop
      vertex 4.1 29.1 2.95
      vertex 3.90491 29.0808 0
      vertex 4.1 29.1 0
    endloop
  endfacet
  facet normal 0.95694 0.290286 0
    outer loop
      vertex 3.17612 3.71732 2.95
      vertex 3.11922 3.90491 0
      vertex 3.11922 3.90491 2.95
    endloop
  endfacet
  facet normal 0.95694 0.290286 0
    outer loop
      vertex 3.11922 3.90491 0
      vertex 3.17612 3.71732 2.95
      vertex 3.17612 3.71732 0
    endloop
  endfacet
  facet normal 0.471394 0.881923 -0
    outer loop
      vertex 3.71732 3.17612 0
      vertex 3.54443 3.26853 2.95
      vertex 3.71732 3.17612 2.95
    endloop
  endfacet
  facet normal 0.471394 0.881923 0
    outer loop
      vertex 3.54443 3.26853 2.95
      vertex 3.71732 3.17612 0
      vertex 3.54443 3.26853 0
    endloop
  endfacet
  facet normal 0.0980215 0.995184 -0
    outer loop
      vertex 4.1 3.1 0
      vertex 3.90491 3.11922 2.95
      vertex 4.1 3.1 2.95
    endloop
  endfacet
  facet normal 0.0980215 0.995184 0
    outer loop
      vertex 3.90491 3.11922 2.95
      vertex 4.1 3.1 0
      vertex 3.90491 3.11922 0
    endloop
  endfacet
  facet normal -0.471391 0.881924 0
    outer loop
      vertex 18.6556 3.26853 0
      vertex 18.4827 3.17612 2.95
      vertex 18.6556 3.26853 2.95
    endloop
  endfacet
  facet normal -0.471391 0.881924 0
    outer loop
      vertex 18.4827 3.17612 2.95
      vertex 18.6556 3.26853 0
      vertex 18.4827 3.17612 0
    endloop
  endfacet
  facet normal -0.290287 0.95694 0
    outer loop
      vertex 18.4827 3.17612 0
      vertex 18.2951 3.11922 2.95
      vertex 18.4827 3.17612 2.95
    endloop
  endfacet
  facet normal -0.290287 0.95694 0
    outer loop
      vertex 18.2951 3.11922 2.95
      vertex 18.4827 3.17612 0
      vertex 18.2951 3.11922 0
    endloop
  endfacet
  facet normal -0.471391 -0.881924 0
    outer loop
      vertex 18.4827 29.0239 0
      vertex 18.6556 28.9315 2.95
      vertex 18.4827 29.0239 2.95
    endloop
  endfacet
  facet normal -0.471391 -0.881924 -0
    outer loop
      vertex 18.6556 28.9315 2.95
      vertex 18.4827 29.0239 0
      vertex 18.6556 28.9315 0
    endloop
  endfacet
  facet normal -0.634393 -0.773011 0
    outer loop
      vertex 18.6556 28.9315 0
      vertex 18.8071 28.8071 2.95
      vertex 18.6556 28.9315 2.95
    endloop
  endfacet
  facet normal -0.634393 -0.773011 -0
    outer loop
      vertex 18.8071 28.8071 2.95
      vertex 18.6556 28.9315 0
      vertex 18.8071 28.8071 0
    endloop
  endfacet
  facet normal 0.471394 -0.881923 0
    outer loop
      vertex 3.54443 28.9315 0
      vertex 3.71732 29.0239 2.95
      vertex 3.54443 28.9315 2.95
    endloop
  endfacet
  facet normal 0.471394 -0.881923 0
    outer loop
      vertex 3.71732 29.0239 2.95
      vertex 3.54443 28.9315 0
      vertex 3.71732 29.0239 0
    endloop
  endfacet
  facet normal 0.290286 -0.95694 0
    outer loop
      vertex 3.71732 29.0239 0
      vertex 3.90491 29.0808 2.95
      vertex 3.71732 29.0239 2.95
    endloop
  endfacet
  facet normal 0.290286 -0.95694 0
    outer loop
      vertex 3.90491 29.0808 2.95
      vertex 3.71732 29.0239 0
      vertex 3.90491 29.0808 0
    endloop
  endfacet
endsolid OpenSCAD_Model
